0 Swivel Hinges Hexadecagon
0 Name: brickcamp-250.ldr
0 Author: Tobias Buckdahn [brick.camp]
0 !LDRAW_ORG Unofficial_Model
0 !LICENSE Licensed under CC BY 4.0 : see https://brick.camp/legal
1 72 0 0 0 0 0 1 0 1 0 -1 0 0 2445.dat
1 71 70.0001 0 -10 -1 0 0 0 1 0 0 0 -1 78329.dat
1 71 70.0001 0 9.9999 -1 0 0 0 1 0 0 0 -1 78329.dat
1 71 -70.0002 0 9.9999 -1 0 0 0 1 0 0 0 -1 78329.dat
1 71 -70.0002 0 -10 -1 0 0 0 1 0 0 0 -1 78329.dat
0 STEP
1 14 100.0416 -8 19.7907 0.382683 0 0.92388 0 1 0 -0.92388 0 0.382683 2429.dat
1 14 100.0417 -8 19.7908 0.000001 0 1 0 1 0 -1 0 0.000001 2430.dat
1 14 -100.0417 -8 -19.7907 -0.382683 0 -0.92388 0 1 0 0.92388 0 -0.382683 2429.dat
1 14 -100.0416 -8 -19.7907 -0.000001 0 -1 0 1 0 1 0 -0.000001 2430.dat
1 14 19.7907 -8 -100.0415 -0.923879 0 0.382684 0 1 0 -0.382684 0 -0.923879 2429.dat
1 14 19.7907 -8 -100.0415 -1 0 0.000001 0 1 0 -0.000001 0 -1 2430.dat
1 14 -19.7908 -8 100.0416 0.923879 0 -0.382684 0 1 0 0.382684 0 0.923879 2429.dat
1 14 -19.7907 -8 100.0415 1 0 -0.000001 0 1 0 0.000001 0 1 2430.dat
0 STEP
1 14 20 -16 100 1 0 0 0 1 0 0 0 1 2429.dat
1 14 20 -16 100 0.92388 0 0.382683 0 1 0 -0.382683 0 0.92388 2430.dat
1 14 -20 -16 -100 -1 0 0 0 1 0 0 0 -1 2429.dat
1 14 -20 -16 -100 -0.92388 0 -0.382683 0 1 0 0.382683 0 -0.92388 2430.dat
1 14 -100 -16 20 -0.000001 0 -1 0 1 0 1 0 -0.000001 2429.dat
1 14 -99.9999 -16 20 0.382683 0 -0.92388 0 1 0 0.92388 0 0.382683 2430.dat
1 14 99.9999 -16 -20 0.000001 0 1 0 1 0 -1 0 0.000001 2429.dat
1 14 99.9999 -16 -20 -0.382683 0 0.92388 0 1 0 -0.92388 0 -0.382683 2430.dat
1 14 84.8528 -16 56.5685 0.707107 0 0.707107 0 1 0 -0.707107 0 0.707107 2429.dat
1 14 84.8529 -16 56.5686 0.382684 0 0.923879 0 1 0 -0.923879 0 0.382684 2430.dat
1 14 56.5685 -16 -84.8528 -0.707106 0 0.707107 0 1 0 -0.707107 0 -0.707106 2429.dat
1 14 56.5685 -16 -84.8528 -0.923879 0 0.382684 0 1 0 -0.382684 0 -0.923879 2430.dat
1 14 -84.8528 -16 -56.5685 -0.707107 0 -0.707107 0 1 0 0.707107 0 -0.707107 2429.dat
1 14 -84.8529 -16 -56.5685 -0.382684 0 -0.923879 0 1 0 0.923879 0 -0.382684 2430.dat
1 14 -56.5686 -16 84.8529 0.707106 0 -0.707107 0 1 0 0.707107 0 0.707106 2429.dat
1 14 -56.5685 -16 84.8528 0.923879 0 -0.382684 0 1 0 0.382684 0 0.923879 2430.dat
0 STEP
1 14 56.7459 -8 84.7343 0.92388 0 0.382683 0 1 0 -0.382683 0 0.92388 2429.dat
1 14 56.746 -8 84.7343 0.707107 0 0.707106 0 1 0 -0.707106 0 0.707107 2430.dat
1 14 -56.7459 -8 -84.7343 -0.92388 0 -0.382683 0 1 0 0.382683 0 -0.92388 2429.dat
1 14 -56.746 -8 -84.7343 -0.707107 0 -0.707106 0 1 0 0.707106 0 -0.707107 2430.dat
1 14 84.7342 -8 -56.7459 -0.382683 0 0.92388 0 1 0 -0.92388 0 -0.382683 2429.dat
1 14 84.7342 -8 -56.7459 -0.707106 0 0.707107 0 1 0 -0.707107 0 -0.707106 2430.dat
1 14 -84.7343 -8 56.7459 0.382683 0 -0.92388 0 1 0 0.92388 0 0.382683 2429.dat
1 14 -84.7342 -8 56.7459 0.707106 0 -0.707107 0 1 0 0.707107 0 0.707106 2430.dat
0 STEP
1 0 0 -8 0 1 0 0 0 1 0 0 0 1 61485.dat
0 STEP
1 0 0 -16 0 0.707107 0 0.707107 0 1 0 -0.707107 0 0.707107 60474.dat
0 STEP
1 71 56.5685 -24 42.4264 -0.707107 0 0.707107 0 1 0 -0.707107 0 -0.707107 78329.dat
1 71 42.4264 -24 56.5685 -0.707107 0 0.707107 0 1 0 -0.707107 0 -0.707107 78329.dat
1 71 -56.5686 -24 -42.4265 -0.707107 0 0.707107 0 1 0 -0.707107 0 -0.707107 78329.dat
1 71 -42.4265 -24 -56.5686 -0.707107 0 0.707107 0 1 0 -0.707107 0 -0.707107 78329.dat
1 72 0 -24 0 0.707107 0 0.707107 0 1 0 -0.707107 0 0.707107 2445.dat
0 STEP
1 19 77.7818 0 77.7817 0.707107 0 0.707107 0 1 0 -0.707107 0 0.707107 3023b.dat
1 19 -77.7818 0 -77.7817 0.707107 0 0.707107 0 1 0 -0.707107 0 0.707107 3023b.dat
1 19 101.6268 0 42.0951 0.382684 0 0.923879 0 1 0 -0.923879 0 0.382684 3023b.dat
1 19 -101.6268 0 -42.0951 0.382684 0 0.923879 0 1 0 -0.923879 0 0.382684 3023b.dat
1 19 42.0952 0 101.6268 0.92388 0 0.382683 0 1 0 -0.382683 0 0.92388 3023b.dat
1 19 -42.0952 0 -101.6268 0.92388 0 0.382683 0 1 0 -0.382683 0 0.92388 3023b.dat
1 19 77.7817 0 -77.7818 -0.707107 0 0.707107 0 1 0 -0.707107 0 -0.707107 3023b.dat
1 19 -77.7817 0 77.7818 -0.707107 0 0.707107 0 1 0 -0.707107 0 -0.707107 3023b.dat
1 19 42.0951 0 -101.6268 -0.923879 0 0.382684 0 1 0 -0.382684 0 -0.923879 3023b.dat
1 19 -42.0951 0 101.6268 -0.923879 0 0.382684 0 1 0 -0.382684 0 -0.923879 3023b.dat
1 19 101.6268 0 -42.0952 -0.382683 0 0.92388 0 1 0 -0.92388 0 -0.382683 3023b.dat
1 19 -101.6268 0 42.0952 -0.382683 0 0.92388 0 1 0 -0.92388 0 -0.382683 3023b.dat
1 19 0 -24 110 1 0 0 0 1 0 0 0 1 3023b.dat
1 19 0 -24 -110 1 0 0 0 1 0 0 0 1 3023b.dat
1 19 42.0952 -24 101.6267 0.92388 0 0.382683 0 1 0 -0.382683 0 0.92388 3023b.dat
1 19 -42.0952 -24 -101.6267 0.92388 0 0.382683 0 1 0 -0.382683 0 0.92388 3023b.dat
1 19 -42.0952 -24 101.6268 0.923879 0 -0.382684 0 1 0 0.382684 0 0.923879 3023b.dat
1 19 42.0952 -24 -101.6268 0.923879 0 -0.382684 0 1 0 0.382684 0 0.923879 3023b.dat
1 19 110 -24 0 0 0 1 0 1 0 -1 0 0 3023b.dat
1 19 -110 -24 0 0 0 1 0 1 0 -1 0 0 3023b.dat
1 19 101.6267 -24 -42.0952 -0.382683 0 0.92388 0 1 0 -0.92388 0 -0.382683 3023b.dat
1 19 -101.6267 -24 42.0952 -0.382683 0 0.92388 0 1 0 -0.92388 0 -0.382683 3023b.dat
1 19 101.6268 -24 42.0952 0.382684 0 0.923879 0 1 0 -0.923879 0 0.382684 3023b.dat
1 19 -101.6268 -24 -42.0952 0.382684 0 0.923879 0 1 0 -0.923879 0 0.382684 3023b.dat
