0 Brick 1 x 1 with Studs on 4 Sides Cube
0 Name: brickcamp-188.ldr
0 Author: Tobias Buckdahn [brick.camp]
0 !LDRAW_ORG Unofficial_Model
0 !LICENSE Licensed under CC BY 4.0 : see https://brick.camp/legal
1 0 10 0 75 1 0 0 0 1 0 0 0 1 4733.dat
1 0 -10 0 55 1 0 0 0 1 0 0 0 1 4733.dat
1 0 10 40 55 1 0 0 0 -1 0 0 0 -1 4733.dat
1 0 -10 40 75 1 0 0 0 -1 0 0 0 -1 4733.dat
1 14 0 48 65 1 0 0 0 -1 0 0 0 -1 3068b.dat
1 14 0 20 93 1 0 0 0 0 1 0 -1 0 3068b.dat
1 14 -28 20 65 0 1 0 0 0 -1 -1 0 0 3068b.dat
1 0 -49 -1 16 1 0 0 0 1 0 0 0 1 4733.dat
1 0 -69 -1 -4 1 0 0 0 1 0 0 0 1 4733.dat
1 0 -49 39 -4 1 0 0 0 -1 0 0 0 -1 4733.dat
1 0 -69 39 16 1 0 0 0 -1 0 0 0 -1 4733.dat
1 14 -59 47 6 1 0 0 0 -1 0 0 0 -1 3068b.dat
1 14 -59 -9 6 1 0 0 0 1 0 0 0 1 3068b.dat
1 14 -59 19 34 1 0 0 0 0 1 0 -1 0 3068b.dat
1 14 -59 19 -22 1 0 0 0 0 -1 0 1 0 3068b.dat
1 14 -31 19 6 0 -1 0 0 0 1 -1 0 0 3068b.dat
1 14 -87 19 6 0 1 0 0 0 -1 -1 0 0 3068b.dat
