0 Circles on Plate 6 x 6 Hexagonal
0 Name: brickcamp-194.ldr
0 Author: Tobias Buckdahn [brick.camp]
0 !LDRAW_ORG Unofficial_Model
0 !LICENSE Licensed under CC BY 4.0 : see https://brick.camp/legal
1 71 -111 76 0 1 0 0 0 1 0 0 0 1 27255.dat
1 14 -111 77 -40 0 1 0 0 0 1 1 0 0 30261.dat
1 14 -111 68 40 -1 0 0 0 1 0 0 0 -1 14769.dat
1 14 -145.461 77 20.311 0.866025 -0.5 0 0 0 1 -0.5 -0.866025 0 30261.dat
1 14 -76.177 68 -19.691 0.5 0 -0.866025 0 1 0 0.866025 0 0.5 14769.dat
1 14 -76.039 77 19.445 -0.866025 -0.5 0 0 0 1 -0.5 0.866025 0 30261.dat
1 14 -145.322 68 -20.557 0.5 0 0.866025 0 1 0 -0.866025 0 0.5 14769.dat
