0 Slope Headlight Tiling
0 Name: brickcamp-248.ldr
0 Author: Tobias Buckdahn [brick.camp]
0 !LDRAW_ORG Unofficial_Model
0 !LICENSE Licensed under CC BY 4.0 : see https://brick.camp/legal
1 25 -20 -10 78 0 -1 0 1 0 0 0 0 1 3040b.dat
1 14 -44 -10 78 0 -1 0 1 0 0 0 0 1 3665b.dat
1 4 -10 -10 68 0 0 -1 -1 0 0 0 1 0 4070.dat
1 25 -10 -10 20 0 0 1 1 0 0 0 1 0 3040b.dat
1 14 -10 -10 44 0 0 1 1 0 0 0 1 0 3665b.dat
1 4 -20 -10 10 0 1 0 -1 0 0 0 0 1 4070.dat
1 25 -68 -10 10 0 1 0 1 0 0 0 0 -1 3040b.dat
1 14 -44 -10 10 0 1 0 1 0 0 0 0 -1 3665b.dat
1 4 -78 -10 20 0 0 1 -1 0 0 0 -1 0 4070.dat
1 25 -78 -10 68 0 0 -1 1 0 0 0 -1 0 3040b.dat
1 14 -78 -10 44 0 0 -1 1 0 0 0 -1 0 3665b.dat
1 4 -68 -10 78 0 -1 0 -1 0 0 0 0 -1 4070.dat
1 25 -20 -10 78 0 -1 0 1 0 0 0 0 1 3040b.dat
1 14 -44 -10 78 0 -1 0 1 0 0 0 0 1 3665b.dat
1 4 -10 -10 68 0 0 -1 -1 0 0 0 1 0 4070.dat
1 25 -10 -10 20 0 0 1 1 0 0 0 1 0 3040b.dat
1 14 -10 -10 44 0 0 1 1 0 0 0 1 0 3665b.dat
1 4 -20 -10 10 0 1 0 -1 0 0 0 0 1 4070.dat
1 25 -68 -10 10 0 1 0 1 0 0 0 0 -1 3040b.dat
1 14 -44 -10 10 0 1 0 1 0 0 0 0 -1 3665b.dat
1 4 -78 -10 20 0 0 1 -1 0 0 0 -1 0 4070.dat
1 25 -78 -10 68 0 0 -1 1 0 0 0 -1 0 3040b.dat
1 14 -78 -10 44 0 0 -1 1 0 0 0 -1 0 3665b.dat
1 4 -68 -10 78 0 -1 0 -1 0 0 0 0 -1 4070.dat
0 STEP
1 25 68 -10 78 0 -1 0 1 0 0 0 0 1 3040b.dat
1 14 44 -10 78 0 -1 0 1 0 0 0 0 1 3665b.dat
1 4 78 -10 68 0 0 -1 -1 0 0 0 1 0 4070.dat
1 25 78 -10 20 0 0 1 1 0 0 0 1 0 3040b.dat
1 14 78 -10 44 0 0 1 1 0 0 0 1 0 3665b.dat
1 4 68 -10 10 0 1 0 -1 0 0 0 0 1 4070.dat
1 25 20 -10 10 0 1 0 1 0 0 0 0 -1 3040b.dat
1 14 44 -10 10 0 1 0 1 0 0 0 0 -1 3665b.dat
1 4 10 -10 20 0 0 1 -1 0 0 0 -1 0 4070.dat
1 25 10 -10 68 0 0 -1 1 0 0 0 -1 0 3040b.dat
1 14 10 -10 44 0 0 -1 1 0 0 0 -1 0 3665b.dat
1 4 20 -10 78 0 -1 0 -1 0 0 0 0 -1 4070.dat
1 25 68 -10 78 0 -1 0 1 0 0 0 0 1 3040b.dat
1 14 44 -10 78 0 -1 0 1 0 0 0 0 1 3665b.dat
1 4 78 -10 68 0 0 -1 -1 0 0 0 1 0 4070.dat
1 25 78 -10 20 0 0 1 1 0 0 0 1 0 3040b.dat
1 14 78 -10 44 0 0 1 1 0 0 0 1 0 3665b.dat
1 4 68 -10 10 0 1 0 -1 0 0 0 0 1 4070.dat
1 25 20 -10 10 0 1 0 1 0 0 0 0 -1 3040b.dat
1 14 44 -10 10 0 1 0 1 0 0 0 0 -1 3665b.dat
1 4 10 -10 20 0 0 1 -1 0 0 0 -1 0 4070.dat
1 25 10 -10 68 0 0 -1 1 0 0 0 -1 0 3040b.dat
1 14 10 -10 44 0 0 -1 1 0 0 0 -1 0 3665b.dat
1 4 20 -10 78 0 -1 0 -1 0 0 0 0 -1 4070.dat
1 25 68 -10 -10 0 -1 0 1 0 0 0 0 1 3040b.dat
1 14 44 -10 -10 0 -1 0 1 0 0 0 0 1 3665b.dat
1 4 78 -10 -20 0 0 -1 -1 0 0 0 1 0 4070.dat
1 25 78 -10 -68 0 0 1 1 0 0 0 1 0 3040b.dat
1 14 78 -10 -44 0 0 1 1 0 0 0 1 0 3665b.dat
1 4 68 -10 -78 0 1 0 -1 0 0 0 0 1 4070.dat
1 25 20 -10 -78 0 1 0 1 0 0 0 0 -1 3040b.dat
1 14 44 -10 -78 0 1 0 1 0 0 0 0 -1 3665b.dat
1 4 10 -10 -68 0 0 1 -1 0 0 0 -1 0 4070.dat
1 25 10 -10 -20 0 0 -1 1 0 0 0 -1 0 3040b.dat
1 14 10 -10 -44 0 0 -1 1 0 0 0 -1 0 3665b.dat
1 4 20 -10 -10 0 -1 0 -1 0 0 0 0 -1 4070.dat
1 25 68 -10 -10 0 -1 0 1 0 0 0 0 1 3040b.dat
1 14 44 -10 -10 0 -1 0 1 0 0 0 0 1 3665b.dat
1 4 78 -10 -20 0 0 -1 -1 0 0 0 1 0 4070.dat
1 25 78 -10 -68 0 0 1 1 0 0 0 1 0 3040b.dat
1 14 78 -10 -44 0 0 1 1 0 0 0 1 0 3665b.dat
1 4 68 -10 -78 0 1 0 -1 0 0 0 0 1 4070.dat
1 25 20 -10 -78 0 1 0 1 0 0 0 0 -1 3040b.dat
1 14 44 -10 -78 0 1 0 1 0 0 0 0 -1 3665b.dat
1 4 10 -10 -68 0 0 1 -1 0 0 0 -1 0 4070.dat
1 25 10 -10 -20 0 0 -1 1 0 0 0 -1 0 3040b.dat
1 14 10 -10 -44 0 0 -1 1 0 0 0 -1 0 3665b.dat
1 4 20 -10 -10 0 -1 0 -1 0 0 0 0 -1 4070.dat
1 25 -20 -10 -10 0 -1 0 1 0 0 0 0 1 3040b.dat
1 14 -44 -10 -10 0 -1 0 1 0 0 0 0 1 3665b.dat
1 4 -10 -10 -20 0 0 -1 -1 0 0 0 1 0 4070.dat
1 25 -10 -10 -68 0 0 1 1 0 0 0 1 0 3040b.dat
1 14 -10 -10 -44 0 0 1 1 0 0 0 1 0 3665b.dat
1 4 -20 -10 -78 0 1 0 -1 0 0 0 0 1 4070.dat
1 25 -68 -10 -78 0 1 0 1 0 0 0 0 -1 3040b.dat
1 14 -44 -10 -78 0 1 0 1 0 0 0 0 -1 3665b.dat
1 4 -78 -10 -68 0 0 1 -1 0 0 0 -1 0 4070.dat
1 25 -78 -10 -20 0 0 -1 1 0 0 0 -1 0 3040b.dat
1 14 -78 -10 -44 0 0 -1 1 0 0 0 -1 0 3665b.dat
1 4 -68 -10 -10 0 -1 0 -1 0 0 0 0 -1 4070.dat
1 25 -20 -10 -10 0 -1 0 1 0 0 0 0 1 3040b.dat
1 14 -44 -10 -10 0 -1 0 1 0 0 0 0 1 3665b.dat
1 4 -10 -10 -20 0 0 -1 -1 0 0 0 1 0 4070.dat
1 25 -10 -10 -68 0 0 1 1 0 0 0 1 0 3040b.dat
1 14 -10 -10 -44 0 0 1 1 0 0 0 1 0 3665b.dat
1 4 -20 -10 -78 0 1 0 -1 0 0 0 0 1 4070.dat
1 25 -68 -10 -78 0 1 0 1 0 0 0 0 -1 3040b.dat
1 14 -44 -10 -78 0 1 0 1 0 0 0 0 -1 3665b.dat
1 4 -78 -10 -68 0 0 1 -1 0 0 0 -1 0 4070.dat
1 25 -78 -10 -20 0 0 -1 1 0 0 0 -1 0 3040b.dat
1 14 -78 -10 -44 0 0 -1 1 0 0 0 -1 0 3665b.dat
1 4 -68 -10 -10 0 -1 0 -1 0 0 0 0 -1 4070.dat
