0 Clip/Handle Plate 1 x 1 framing 1 x 2 bricks
0 Name: brickcamp-160.ldr
0 Author: Tobias Buckdahn [brick.camp]
0 !LDRAW_ORG Unofficial_Model
0 !LICENSE Licensed under CC BY 4.0 : see https://brick.camp/legal
1 14 0 50 100 0 0 1 0 1 0 -1 0 0 6019.dat
1 0 -22 32 100 0 1 0 0 0 -1 -1 0 0 26047.dat
1 14 20 50 100 0 0 -1 0 1 0 1 0 0 6019.dat
1 4 10 42 100 1 0 0 0 1 0 0 0 1 3069b.dat
1 0 42 32 100 0 -1 0 0 0 -1 1 0 0 26047.dat
1 25 34 22 100 0 -1 0 1 0 0 0 0 1 3004.dat
1 14 20 -6 100 0 0 -1 0 -1 0 -1 0 0 6019.dat
1 0 42 12 100 0 -1 0 0 0 1 -1 0 0 26047.dat
1 14 0 -6 100 0 0 1 0 -1 0 1 0 0 6019.dat
1 4 10 2 100 -1 0 0 0 -1 0 0 0 1 3069b.dat
1 25 10 -14 100 -1 0 0 0 -1 0 0 0 1 3023.dat
1 25 10 58 100 -1 0 0 0 1 0 0 0 -1 3023.dat
1 0 -22 12 100 0 1 0 0 0 1 1 0 0 26047.dat
1 25 -14 22 100 0 1 0 -1 0 0 0 0 1 3004.dat
1 14 -80 62 40 0 0 1 0 1 0 -1 0 0 6019.dat
1 0 -132 32 40 0 1 0 0 0 -1 -1 0 0 26047.dat
1 14 -60 62 40 0 0 -1 0 1 0 1 0 0 6019.dat
1 4 -70 46 40 1 0 0 0 1 0 0 0 1 3069b.dat
1 0 -8 32 40 0 -1 0 0 0 -1 1 0 0 26047.dat
1 25 -26 22 40 0 -1 0 1 0 0 0 0 1 3004.dat
1 14 -60 -18 40 0 0 -1 0 -1 0 -1 0 0 6019.dat
1 0 -8 12 40 0 -1 0 0 0 1 -1 0 0 26047.dat
1 14 -80 -18 40 0 0 1 0 -1 0 1 0 0 6019.dat
1 4 -70 -2 40 -1 0 0 0 -1 0 0 0 1 3069b.dat
1 25 -70 -34 40 -1 0 0 0 -1 0 0 0 1 3023.dat
1 25 -70 78 40 -1 0 0 0 1 0 0 0 -1 3023.dat
1 0 -132 12 40 0 1 0 0 0 1 1 0 0 26047.dat
1 25 -114 22 40 0 1 0 -1 0 0 0 0 1 3004.dat
