0 Cheese Clipped To Octagonal Bar Holder
0 Name: brickcamp-242.ldr
0 Author: Tobias Buckdahn [brick.camp]
0 !LDRAW_ORG Unofficial_Model
0 !LICENSE Licensed under CC BY 4.0 : see https://brick.camp/legal
1 0 0 -8 0 1 0 0 0 1 0 0 0 1 75937.dat
1 4 50 -6 -8 0 0 1 1 0 0 0 1 0 4085c.dat
1 14 50 -6 -8 0 0 1 1 0 0 0 1 0 54200.dat
1 25 50 -6 8 0 0 1 -1 0 0 0 -1 0 4085c.dat
1 14 50 -6 8 0 0 1 -1 0 0 0 -1 0 54200.dat
1 4 -50 -6 8 0 0 -1 1 0 0 0 -1 0 4085c.dat
1 14 -50 -6 8 0 0 -1 1 0 0 0 -1 0 54200.dat
1 25 -50 -6 -8 0 0 -1 -1 0 0 0 1 0 4085c.dat
1 14 -50 -6 -8 0 0 -1 -1 0 0 0 1 0 54200.dat
1 4 -8 -6 -50 0 1 0 1 0 0 0 0 -1 4085c.dat
1 47 -8 -6 -50 0 1 0 1 0 0 0 0 -1 54200.dat
1 25 8 -6 -50 0 -1 0 -1 0 0 0 0 -1 4085c.dat
1 47 8 -6 -50 0 -1 0 -1 0 0 0 0 -1 54200.dat
1 4 8 -6 50 0 -1 0 1 0 0 0 0 1 4085c.dat
1 14 8 -6 50 0 -1 0 1 0 0 0 0 1 54200.dat
1 25 -8 -6 50 0 1 0 -1 0 0 0 0 1 4085c.dat
1 14 -8 -6 50 0 1 0 -1 0 0 0 0 1 54200.dat
0 STEP
1 4 29.6985 -6 -41.0122 0 0.707107 0.707107 1 0 0 0 0.707107 -0.707107 4085c.dat
1 14 29.6985 -6 -41.0122 0 0.707107 0.707107 1 0 0 0 0.707107 -0.707107 54200.dat
1 25 41.0122 -6 -29.6985 0 -0.707107 0.707107 -1 0 0 0 -0.707107 -0.707107 4085c.dat
1 14 41.0122 -6 -29.6985 0 -0.707107 0.707107 -1 0 0 0 -0.707107 -0.707107 54200.dat
1 4 -29.6985 -6 41.0122 0 -0.707107 -0.707107 1 0 0 0 -0.707107 0.707107 4085c.dat
1 14 -29.6985 -6 41.0122 0 -0.707107 -0.707107 1 0 0 0 -0.707107 0.707107 54200.dat
1 25 -41.0122 -6 29.6985 0 0.707107 -0.707107 -1 0 0 0 0.707107 0.707107 4085c.dat
1 14 -41.0122 -6 29.6985 0 0.707107 -0.707107 -1 0 0 0 0.707107 0.707107 54200.dat
1 4 -41.0122 -6 -29.6985 0 0.707107 -0.707107 1 0 0 0 -0.707107 -0.707107 4085c.dat
1 14 -41.0122 -6 -29.6985 0 0.707107 -0.707107 1 0 0 0 -0.707107 -0.707107 54200.dat
1 25 -29.6985 -6 -41.0122 0 -0.707107 -0.707107 -1 0 0 0 0.707107 -0.707107 4085c.dat
1 14 -29.6985 -6 -41.0122 0 -0.707107 -0.707107 -1 0 0 0 0.707107 -0.707107 54200.dat
1 4 41.0122 -6 29.6985 0 -0.707107 0.707107 1 0 0 0 0.707107 0.707107 4085c.dat
1 14 41.0122 -6 29.6985 0 -0.707107 0.707107 1 0 0 0 0.707107 0.707107 54200.dat
1 25 29.6985 -6 41.0122 0 0.707107 0.707107 -1 0 0 0 -0.707107 0.707107 4085c.dat
1 14 29.6985 -6 41.0122 0 0.707107 0.707107 -1 0 0 0 -0.707107 0.707107 54200.dat
