0 Clip Handle Flip
0 Name: brickcamp-117.ldr
0 Author: Tobias Buckdahn [brick.camp]
0 !LDRAW_ORG Unofficial_Model
0 !LICENSE Licensed under CC BY 4.0 : see https://brick.camp/legal
1 14 -20 0 0 0 0 -1 0 1 0 1 0 0 2921.dat
1 25 20 24 40 -1 0 0 0 -1 0 0 0 1 60475b.dat
1 15 20 -16 0 1 0 0 0 1 0 -0 0 1 85861.dat
1 15 20 40 0 1 0 0 0 -1 0 0 0 -1 85861.dat
1 14 70 0 60 0 0 -1 0 1 0 1 0 0 2921.dat
1 25 110 24 60 0 0 1 0 -1 0 1 0 0 60475b.dat
1 15 90 0 60 1 0 0 0 1 0 -0 0 1 85861.dat
1 15 90 24 60 1 0 0 0 -1 0 0 0 -1 85861.dat
