0 Roller Skate Box
0 Name: brickcamp-240.ldr
0 Author: Tobias Buckdahn [brick.camp]
0 !LDRAW_ORG Unofficial_Model
0 !LICENSE Licensed under CC BY 4.0 : see https://brick.camp/legal
1 71 0 -31.5556 0 0 0 -1 0 1 0 1 0 0 11253.dat
1 72 0 -23.5556 0 -1 0 0 0 1 0 0 0 -1 11253.dat
1 0 0 -7.5556 0 0 0 1 0 -1 0 1 0 0 11253.dat
1 10 18 -19.5556 0 0 -1 0 -1 0 0 0 0 -1 3069b.dat
1 14 0 0.4444 0 0 0 1 0 -1 0 1 0 0 3070b.dat
1 14 0 -39.5556 0 0 0 -1 0 1 0 1 0 0 3070b.dat
1 10 -18 -19.5556 0 0 1 0 1 0 0 0 0 -1 3069b.dat
1 10 0 -19.5556 -18 0 0 -1 -1 0 0 0 1 0 3069b.dat
1 10 0 -19.5556 18 0 0 -1 1 0 0 0 -1 0 3069b.dat
0 STEP
1 71 51 -31.5556 10 0 0 1 0 1 0 -1 0 0 11253.dat
1 72 51 -23.5556 10 1 0 0 0 1 0 0 0 1 11253.dat
1 0 51 -7.5556 10 0 0 -1 0 -1 0 -1 0 0 11253.dat
1 10 33 -19.5556 10 0 1 0 -1 0 0 0 0 1 3069b.dat
1 14 51 0.4444 10 0 0 -1 0 -1 0 -1 0 0 3070b.dat
1 10 51 -19.5556 28 0 0 1 -1 0 0 0 -1 0 3069b.dat
