<svg xmlns="http://www.w3.org/2000/svg" width="83.839" height="90.556" viewBox="0 0 22.182 23.959">
  <style>
    <![CDATA[
    .B {
      stroke-linejoin: round
    }

    .C {
      stroke-width: 1.3
    }

    .D {
      stroke-linecap: round
    }
    ]]>
  </style>
  <g transform="matrix(1.107406 .013623 -.013623 1.107406 -50.088425 -58.191838)" class="B C">
    <g stroke="#000">
      <path
        d="M46.616 57.019l.039 5.098m18.657-5.098l.016 5.057m-18.713-5.057l3.474-1.992m15.222 1.992l-3.474-1.992m-11.186 4.598l-4.037-2.606m14.671 2.599l4.026-2.599"
        fill="none" class="D" />
      <path
        d="M60.143 55.027v2.148c0 .507-.195.877-.617 1.272-.788-.744-2.035-1.042-3.483-1.042-1.391 0-2.57.41-3.471 1.148-.478-.411-.682-.836-.682-1.378v-2.148c0 1.765 2.093 2.372 4.152 2.378 2.074.007 4.113-.6 4.1-2.378z" />
      <path
        d="M60.143 55.027c0 1.39-1.821 2.378-4.1 2.378s-4.152-.988-4.152-2.378 1.847-2.517 4.126-2.517 4.126 1.127 4.126 2.517z"
        fill="none" />
    </g>
    <g stroke="#0a0">
      <path
        d="M46.642 61.915l.14 9.838m18.557-9.838l.14 9.838m-9.488-3.804l.026 4.896m-9.374-10.93l4.011-2.29m5.338 8.324l-9.348-6.034m9.348 6.034l9.348-6.034-4.052-2.297"
        fill="none" class="D" />
      <path
        d="M60.169 59.923v2.148c0 1.39-1.847 2.517-4.126 2.517s-4.126-1.127-4.126-2.517v-2.148c0 3.542 8.277 3.544 8.252 0z"
        fill="#0a0" />
      <path
        d="M60.169 59.923c0 .668-.435 1.308-1.209 1.78s-1.823.737-2.918.737-2.144-.265-2.918-.737-1.209-1.112-1.209-1.78c0-1.39 1.847-2.517 4.126-2.517s4.126 1.127 4.126 2.517z"
        fill="none" />
    </g>
  </g>
</svg>