<svg xmlns="http://www.w3.org/2000/svg" width="83.047" height="89.922" viewBox="0 0 21.973 23.792">
  <style>
    <![CDATA[
    .B {
      stroke-linejoin: round
    }

    .C {
      stroke-width: 1.3
    }

    .D {
      stroke-linecap: round
    }
    ]]>
  </style>
  <g transform="matrix(1.097244 .012413 -.012413 1.097244 -49.72821 -57.597134)" class="B C">
    <g stroke="#000">
      <path d="M50.16 64.962l-3.4 1.886 9.348 6.034 9.341-6.034-3.541-1.886" fill="none" class="D" />
      <use href="#B" />
      <path
        d="M56.943 62.499c1.868.241 3.27 1.252 3.27 2.463 0 1.39-1.847 2.517-4.126 2.517s-4.126-1.127-4.126-2.517c0-1.133 1.227-2.091 2.914-2.407"
        fill="none" class="D" />
    </g>
    <g stroke="#0a0">
      <path
        d="M46.616 57.019l.14 9.838m18.557-9.838l.14 9.838m-9.488-3.804l.14 9.838m-9.488-15.872l3.474-1.992m15.222 1.992l-3.474-1.992m-5.874 8.026l-9.348-6.034m9.348 6.034l9.348-6.034"
        fill="none" class="D" />
      <use href="#B" x="-0.07" y="-9.935" fill="#0a0" />
      <path
        d="M60.143 55.027a4.126 2.517 0 0 1-4.126 2.517 4.126 2.517 0 0 1-4.126-2.517 4.126 2.517 0 0 1 4.126-2.517 4.126 2.517 0 0 1 4.126 2.517z"
        fill="none" />
    </g>
  </g>
  <defs>
    <path id="B"
      d="M60.213 64.962v2.148c0 1.39-1.847 2.517-4.126 2.517s-4.126-1.127-4.126-2.517v-2.148c0 3.542 8.277 3.544 8.252 0z" />
  </defs>
</svg>