<svg xmlns="http://www.w3.org/2000/svg" width="88.406" height="73.639" viewBox="0 0 23.391 19.484">
  <rect width="19.807" height="14.178" x="1.976" y="1.39" rx="3" stroke="#000" stroke-width="1.449"
    paint-order="markers stroke fill" />
  <path
    d="M7.821 15.539L4.224 15.5c-1.273-.014-2.275-1.002-2.275-2.275v-9c0-1.273 1.002-2.275 2.275-2.275h14.942c1.273 0 2.275 1.002 2.275 2.275v9c0 1.273-1.002 2.275-2.275 2.275l-4.141-.055v-1.592l-3.364 2.378 3.364 2.304v-1.586h4.141c2.051 0 3.725-1.674 3.725-3.725v-9C22.891 2.174 21.217.5 19.166.5H4.224C2.173.5.5 2.174.5 4.225v9c0 2.051 1.674 3.725 3.725 3.725h3.596l-1.026-.697z"
    fill="#0a0" stroke="#0a0" paint-order="markers stroke fill" />
</svg>