<svg xmlns="http://www.w3.org/2000/svg" width="83.144" height="90.15" viewBox="0 0 21.998 23.852">
  <g fill="none" stroke-linecap="round" stroke-linejoin="round" stroke-width="1.43">
    <path
      d="M21.283 5.676l-.073 10.823M3.249 7.311L.715 5.676l3.822-2.192m9.296 7l-2.834 1.829-2.901-1.872M18.923 7.2l2.361-1.524-3.822-2.192M.715 5.676l.154 10.823m10.13-4.185l.154 10.823"
      stroke="#000" />
    <path d="M4.537 3.485L2.18 10.368h17.753l-2.472-6.884M2.18 10.368l.154 10.823m17.599-10.823l.154 10.823"
      stroke="#0a0" />
  </g>
  <path
    d="M15.596 3.485v2.363c0 1.53-2.032 2.769-4.539 2.769s-4.539-1.24-4.539-2.769V3.485c0 3.897 9.106 3.898 9.078 0z"
    fill="#0a0" stroke="#0a0" stroke-linejoin="round" stroke-width="1.43" />
  <path
    d="M15.596 3.485c0 .735-.478 1.439-1.33 1.958s-2.006.811-3.21.811-2.358-.292-3.21-.811-1.33-1.224-1.33-1.958c0-1.53 2.032-2.769 4.539-2.769s4.539 1.24 4.539 2.769z"
    fill="none" stroke="#0a0" stroke-linejoin="round" stroke-width="1.43" />
</svg>