<svg xmlns="http://www.w3.org/2000/svg" width="83.781" height="90.846" viewBox="0 0 22.167 24.036">
  <style>
    .prefix__C {
      stroke-linecap: round
    }
  </style>
  <g stroke-linejoin="round">
    <g stroke="#000" stroke-width="1.3">
      <path d="M16.265 9.064l5.182-3.344M.72 5.72L4.571 3.51M21.446 5.72L17.595 3.51m3.85 2.209v10.907" fill="none"
        class="prefix__C" stroke-width="1.441102" />
      <path d="M15.716 3.511v2.382c0 1.54-2.048 2.79-4.574 2.79s-4.574-1.25-4.574-2.79V3.51c0 3.927 9.175 3.93 9.148 0z"
        stroke-width="1.441102" />
      <path
        d="M15.716 3.511a4.574 2.79 0 01-4.574 2.79 4.574 2.79 0 01-4.574-2.79 4.574 2.79 0 014.574-2.79 4.574 2.79 0 014.574 2.79z"
        fill="none" stroke-width="1.441102" />
    </g>
    <g stroke="#0a0">
      <path d="M11.083 12.409l5.181-3.345m-5.181 3.345L.72 5.719m0 0v5.037m10.363 1.653v10.906" fill="none"
        stroke-width="1.441102" class="prefix__C" />
      <g stroke-width="1.305">
        <path
          d="M25.906 67.98l1.83.176c1.122.108 2.017 1.568 2.017 3.503s-.895 3.611-2.017 3.503l-1.83-.176c1.275.106 2.034-1.789 2.017-3.503s-.68-3.418-2.017-3.503z"
          fill="#0a0" transform="matrix(.87842 -.6762 .5654 .9535 -59.719 -34.383)" />
        <path
          d="M27.923 71.483c0 1.935-.903 3.503-2.017 3.503s-2.017-1.568-2.017-3.503.903-3.503 2.017-3.503 2.017 1.568 2.017 3.503z"
          fill="none" transform="matrix(.87842 -.6762 .5654 .9535 -59.719 -34.383)" />
      </g>
    </g>
  </g>
</svg>