0 Brick 1 x 2 with Handle Interlocked
0 Name: brickcamp-186.ldr
0 Author: Tobias Buckdahn [brick.camp]
0 !LDRAW_ORG Unofficial_Model
0 !LICENSE Licensed under CC BY 4.0 : see https://brick.camp/legal
1 25 60 20 -77 0 -1 0 0 0 1 -1 0 0 30236.dat
1 25 84 20 -77 0 -1 0 0 0 1 -1 0 0 30236.dat
1 14 47.999 -17 -77 0 -1 0 0 0 -1 1 0 0 30236.dat
1 14 72 -16.999 -77 0 -1 0 0 0 -1 1 0 0 30236.dat
1 47 108 20 -77 0 -1 0 0 0 1 -1 0 0 30236.dat
1 47 132 20 -77 0 -1 0 0 0 1 -1 0 0 30236.dat
1 47 95.999 -17 -76.999 0 -1 0 0 0 -1 1 0 0 30236.dat
1 47 120 -16.999 -77 0 -1 0 0 0 -1 1 0 0 30236.dat
1 47 12 20 -77 0 -1 0 0 0 1 -1 0 0 30236.dat
1 47 35.999 20 -76.999 0 -1 0 0 0 1 -1 0 0 30236.dat
1 47 0 -17 -77 0 -1 0 0 0 -1 1 0 0 30236.dat
1 47 24 -16.999 -77 0 -1 0 0 0 -1 1 0 0 30236.dat
