0 Technic Beam SNOT
0 Name: brickcamp-77.ldr
0 Author: Tobias Buckdahn [brick.camp]
0 !LDRAW_ORG Unofficial_Model
0 !LICENSE Licensed under CC BY 4.0 : see https://brick.camp/legal
1 14 -1 18 0 1 0 0 0 1 0 -0 0 1 43857.dat
1 14 40 -8 59 1 0 0 0 1 0 0 0 1 32523.dat
1 14 -1 -40 0 1 0 0 0 1 0 0 0 1 18654.dat
1 57 -1 28 0 0 0 -1 0 1 0 1 0 0 3023.dat
1 57 40 2 59 0 0 -1 0 1 0 1 0 0 3623.dat
1 57 -1 -30 0 0 0 -1 0 1 0 1 0 0 3024.dat
1 57 -1 8 0 0 0 1 0 -1 0 1 0 -0 3023.dat
1 57 40 -18 59 0 0 1 0 -1 0 1 0 0 3623.dat
1 57 -1 -50 0 0 0 1 0 -1 0 1 0 0 3024.dat
