0 Double Bracket
0 Name: brickcamp-5.ldr
0 Author: Tobias Buckdahn [brick.camp]
0 !LDRAW_ORG Unofficial_Model
0 !LICENSE Licensed under CC BY 4.0 : see https://brick.camp/legal
1 14 0 -48 -20 1 0 0 0 1 0 0 0 1 2436a.dat
1 14 0 -38 -50 1 0 0 0 0 -1 0 1 0 2436a.dat
1 25 0 -38 -42 1 0 0 0 0 -1 0 1 0 3023.dat
1 25 0 -40 -20 1 0 0 0 1 0 -0 0 1 3710.dat
1 4 0 -32 -20 1 0 0 0 1 0 -0 0 1 3710.dat
1 14 -127 -48 -20 1 0 0 0 1 0 0 0 1 2436a.dat
1 14 -127 -38 -82 1 0 0 0 0 -1 0 1 0 2436a.dat
1 25 -127 -38 -58 1 0 0 0 0 -1 0 1 0 3023.dat
1 25 -127 -24 -20 1 0 0 0 1 0 -0 0 1 3710.dat
1 4 -127 -6 -20 1 0 0 0 1 0 -0 0 1 3710.dat
