0 untitled model
0 Name: model.ldr
0 Author: brick.camp (by Tobias Buckdahn)
1 72 34 -19.7778 0 0 -1 0 1 0 0 0 0 1 98283.dat
1 0 0 -39.7778 0 1 0 0 0 1 0 0 0 1 4733.dat
1 72 -34 -19.7778 0 0 1 0 -1 0 0 0 0 1 98283.dat
1 72 0 -19.7778 -34 0 0 1 1 0 0 0 1 0 98283.dat
1 72 0 -19.7778 34 0 0 1 -1 0 0 0 -1 0 98283.dat
1 14 -20.4472 -19.9 -20.5061 0 0.707107 0.707107 1 0 0 0 0.707107 -0.707107 3023b.dat
1 14 20.565 -19.9 20.5061 0 -0.707107 -0.707107 1 0 0 0 -0.707107 0.707107 3023b.dat
1 14 -20.4472 -19.9 20.5061 0 0.707107 -0.707107 1 0 0 0 -0.707107 -0.707107 3023b.dat
1 14 20.565 -19.9 -20.5061 0 -0.707107 0.707107 1 0 0 0 0.707107 0.707107 3023b.dat
