0 Nested Archs
0 Name: brickcamp-92.ldr
0 Author: Tobias Buckdahn [brick.camp]
0 !LDRAW_ORG Unofficial_Model
0 !LICENSE Licensed under CC BY 4.0 : see https://brick.camp/legal
1 25 0 24 100 1 0 0 0 1 0 -0 0 1 6005.dat
1 25 0 -24 0 1 0 0 0 1 0 -0 0 1 2339.dat
1 14 0 -8 110 1 0 0 0 1 0 -0 0 1 6060.dat
1 14 0 40 100 1 0 0 0 1 0 -0 0 1 6091.dat
1 72 0 96 0 -0 0 -1 -0 1 0 1 0 -0 3005.dat
1 71 0 96 20 -0 0 -1 -0 1 0 1 0 -0 3005.dat
1 72 0 96 40 -0 0 -1 -0 1 0 1 0 -0 3005.dat
1 71 0 96 60 -0 0 -1 -0 1 0 1 0 -0 3005.dat
1 72 0 96 80 -0 0 -1 -0 1 0 1 0 -0 3005.dat
1 71 0 96 100 -0 0 -1 -0 1 0 1 0 -0 3005.dat
1 72 0 96 120 -0 0 -1 -0 1 0 1 0 -0 3005.dat
1 71 0 96 140 -0 0 -1 -0 1 0 1 0 -0 3005.dat
1 72 0 72 140 -0 0 -1 -0 1 0 1 0 -0 3005.dat
1 71 0 48 140 -0 0 -1 -0 1 0 1 0 -0 3005.dat
1 72 0 24 140 -0 0 -1 -0 1 0 1 0 -0 3005.dat
1 71 0 0 140 -0 0 -1 -0 1 0 1 0 -0 3005.dat
1 72 0 -24 140 -0 0 -1 -0 1 0 1 0 -0 3005.dat
