0 Camera Bracket SNOT
0 Name: brickcamp-159.ldr
0 Author: Tobias Buckdahn [brick.camp]
0 !LDRAW_ORG Unofficial_Model
0 !LICENSE Licensed under CC BY 4.0 : see https://brick.camp/legal
1 0 -16 7 0 0 1 0 -1 0 0 0 0 1 4595.dat
1 25 14 -3 0 0 0 1 0 1 0 -1 0 0 99781.dat
1 0 -41 -47 -26 0 1 0 -1 0 0 0 0 1 4595.dat
1 25 -11 -57 -26 0 0 1 0 1 0 -1 0 0 99781.dat
1 0 20 -48 41 0 0 -1 1 0 0 0 -1 0 4595.dat
1 25 20 -37.999 11 1 0 0 0 -1 0 0 0 -1 99781.dat
1 0 24 15 0 0 -1 0 1 0 0 0 0 1 4595.dat
1 25 -6 25.001 0 0 0 -1 0 -1 0 -1 0 0 99781.dat
