0 Connector Beam 3x3 SNOT
0 Name: brickcamp-207.ldr
0 Author: Tobias Buckdahn [brick.camp]
0 !LDRAW_ORG Unofficial_Model
0 !LICENSE Licensed under CC BY 4.0 : see https://brick.camp/legal
1 7 37.5 -8 37.5 0 0 -1 0 1 0 1 0 0 39793.dat
1 1 37.5 -18 17.5 0 0 -1 -1 0 0 0 1 0 4274.dat
1 1 37.5 -18 57.5 0 0 -1 -1 0 0 0 1 0 4274.dat
1 1 57.5 2 37.5 0 -1 0 1 0 0 0 0 1 4274.dat
1 1 17.5 2 37.5 0 -1 0 1 0 0 0 0 1 4274.dat
1 14 37.5 -26 37.5 0 0 -1 0 1 0 1 0 0 11212.dat
1 14 37.5 10 37.5 0 0 1 0 -1 0 1 0 0 11212.dat
1 7 -27.5 -8 -32.5 0 0 -1 0 1 0 1 0 0 39793.dat
1 1 -27.5 -18 -52.5 0 0 -1 -1 0 0 0 1 0 4274.dat
1 1 -27.5 -18 -12.5 0 0 -1 -1 0 0 0 1 0 4274.dat
1 1 -7.5 2 -32.5 0 -1 0 1 0 0 0 0 1 4274.dat
1 1 -47.5 2 -32.5 0 -1 0 1 0 0 0 0 1 4274.dat
1 14 -27.5 -61 -32.5 0 0 -1 0 1 0 1 0 0 11212.dat
1 14 -27.5 45 -32.5 0 0 1 0 -1 0 1 0 0 11212.dat
