0 Grilled Levers
0 Name: brickcamp-70.ldr
0 Author: Tobias Buckdahn [brick.camp]
0 !LDRAW_ORG Unofficial_Model
0 !LICENSE Licensed under CC BY 4.0 : see https://brick.camp/legal
1 14 0 0 0 1 0 0 0 1 0 -0 0 1 2412b.dat
1 14 0 0 0 -1 0 0 0 -1 0 0 0 1 2412b.dat
1 25 0 0 4 -0 -1 0 -0 0 1 -1 0 -0 4593.dat
1 25 0 0 -4 -0 -1 0 -0 0 1 -1 0 -0 4593.dat
1 14 60 0 60 1 0 0 0 1 0 -0 0 1 2412b.dat
1 14 60 -24 60 -1 0 0 0 -1 0 0 0 1 2412b.dat
1 25 60 -10 64 -0 -1 0 -0 0 1 -1 0 -0 4593.dat
1 25 60 0 56 -0 -1 0 -0 0 1 -1 0 -0 4593.dat
