0 Hinge 1 x 2 Triangle
0 Name: brickcamp-81.ldr
0 Author: Tobias Buckdahn [brick.camp]
0 !LDRAW_ORG Unofficial_Model
0 !LICENSE Licensed under CC BY 4.0 : see https://brick.camp/legal
1 14 2.8 1 0 -1 0 0 0 1 0 0 0 -1 4276b.dat
1 25 2.8 9 0 1 0 0 0 1 0 -0 0 1 4275b.dat
1 14 21.196156 41 0 0.5 -0.866025 0 -0.866025 -0.5 0 0 0 -1 4276b.dat
1 25 14.267952 37 0 -0.5 -0.866025 0 0.866025 -0.5 0 0 0 1 4275b.dat
1 14 -23.196154 37.000004 0 0.5 0.866026 0 0.866025 -0.5 0 0 0 -1 4276b.dat
1 25 -16.26795 33.000004 0 -0.5 0.866026 0 -0.866026 -0.5 0 0 0 1 4275b.dat
