0 Headlight-Techbrick-Jumper Offset
0 Name: brickcamp-205.ldr
0 Author: Tobias Buckdahn [brick.camp]
0 !LDRAW_ORG Unofficial_Model
0 !LICENSE Licensed under CC BY 4.0 : see https://brick.camp/legal
1 14 -55 -32 10 1 0 0 0 1 0 0 0 1 4070.dat
1 14 -35 -32 10 1 0 0 0 1 0 0 0 1 4070.dat
1 4 -45 -22 -20 1 0 0 0 0 -1 0 1 0 3700.dat
1 25 -45 -12 -10 1 0 0 0 1 0 0 0 1 3794b.dat
1 2 -105 -4 -80 1 0 0 0 1 0 0 0 1 3865.dat
1 14 -135 -32 10 1 0 0 0 1 0 0 0 1 4070.dat
1 14 -115 -32 10 1 0 0 0 1 0 0 0 1 4070.dat
1 4 -125 -22 -60 1 0 0 0 0 -1 0 1 0 3700.dat
1 25 -125 -12 -10 1 0 0 0 1 0 0 0 1 3794b.dat
1 19 -105 -8 80 1 0 0 0 1 0 0 0 1 92438.dat
