0 Hinge Top Frame
0 Name: brickcamp-19.ldr
0 Author: Tobias Buckdahn [brick.camp]
0 !LDRAW_ORG Unofficial_Model
0 !LICENSE Licensed under CC BY 4.0 : see https://brick.camp/legal
1 25 -39 -20 46 1 0 0 0 1 0 -0 0 1 3938.dat
1 25 -39 20 46 -1 0 0 0 -1 0 0 0 1 3938.dat
1 14 -59 0 46 0 -1 0 -1 0 0 0 0 -1 3938.dat
1 14 -19 0 46 0 1 0 -1 0 0 0 0 1 3938.dat
1 25 -87 -20 0 1 0 0 0 1 0 -0 0 1 3938.dat
1 25 -87 20 0 -1 0 0 0 -1 0 0 0 1 3938.dat
1 14 -115 0 0 0 -1 0 -1 0 0 0 0 -1 3938.dat
1 14 -59 0 0 0 1 0 -1 0 0 0 0 1 3938.dat
