0 1x5 Plate Octagon
0 Name: brickcamp-239.ldr
0 Author: Tobias Buckdahn [brick.camp]
0 !LDRAW_ORG Unofficial_Model
0 !LICENSE Licensed under CC BY 4.0 : see https://brick.camp/legal
1 7 80 -8 80 1 0 0 0 1 0 0 0 1 41539.dat
1 7 -80 -8 80 1 0 0 0 1 0 0 0 1 41539.dat
1 7 80 -8 -80 1 0 0 0 1 0 0 0 1 41539.dat
1 7 -80 -8 -80 1 0 0 0 1 0 0 0 1 41539.dat
1 8 29.9924 -16 -129.4445 1 0 0 0 1 0 0 0 1 34103.dat
1 8 129.9924 -16 30.5555 0 0 1 0 1 0 -1 0 0 34103.dat
1 8 129.9924 -16 -29.4445 0 0 1 0 1 0 -1 0 0 34103.dat
1 8 -130.0076 -16 30.5555 0 0 1 0 1 0 -1 0 0 34103.dat
1 8 -130.0076 -16 -29.4445 0 0 1 0 1 0 -1 0 0 34103.dat
1 8 -30.0076 -16 130.5555 1 0 0 0 1 0 0 0 1 34103.dat
1 8 29.9924 -16 130.5555 1 0 0 0 1 0 0 0 1 34103.dat
1 8 -30.0076 -16 -129.4445 1 0 0 0 1 0 0 0 1 34103.dat
0 STEP
1 0 0.548 -32 0 1 0 0 0 1 0 0 0 1 30033.dat
0 STEP
1 2 -89.452 -24 0 1 0 0 0 1 0 0 0 1 78329.dat
1 2 -129.452 -32 0 0 0 1 0 1 0 -1 0 0 78329.dat
1 14 -119.452 -24 -50 0 0 -1 0 1 0 1 0 0 2430.dat
1 14 -119.452 -24 50 0 0 -1 0 1 0 1 0 0 2429.dat
1 15 -59.452 -32 0 1 0 0 0 1 0 0 0 1 63868.dat
1 25 -99.452 -32 0 1 0 0 0 1 0 0 0 1 3023b.dat
0 STEP
1 2 89.4368 -24 0 -1 0 0 0 1 0 0 0 -1 78329.dat
1 2 129.4368 -32 0 0 0 -1 0 1 0 1 0 0 78329.dat
1 14 119.4368 -24 50 0 0 1 0 1 0 -1 0 0 2430.dat
1 14 119.4368 -24 -50 0 0 1 0 1 0 -1 0 0 2429.dat
1 15 59.4368 -32 0 -1 0 0 0 1 0 0 0 -1 63868.dat
1 25 99.4368 -32 0 -1 0 0 0 1 0 0 0 -1 3023b.dat
0 STEP
1 2 -63.2543 -24 63.2467 0.707107 0 0.707107 0 1 0 -0.707107 0 0.707107 78329.dat
1 2 -91.5386 -32 91.5311 -0.707107 0 0.707107 0 1 0 -0.707107 0 -0.707107 78329.dat
1 14 -119.8229 -24 49.1046 0.707107 0 -0.707107 0 1 0 0.707107 0 0.707107 2430.dat
1 14 -49.1122 -24 119.8153 0.707107 0 -0.707107 0 1 0 0.707107 0 0.707107 2429.dat
1 15 -42.0411 -32 42.0335 0.707107 0 0.707107 0 1 0 -0.707107 0 0.707107 63868.dat
1 25 -70.3254 -32 70.3178 0.707107 0 0.707107 0 1 0 -0.707107 0 0.707107 3023b.dat
0 STEP
1 2 63.2392 -24 -63.2468 -0.707107 0 -0.707107 0 1 0 0.707107 0 -0.707107 78329.dat
1 2 91.5235 -32 -91.5311 0.707107 0 -0.707107 0 1 0 0.707107 0 0.707107 78329.dat
1 14 119.8077 -24 -49.1046 -0.707107 0 0.707107 0 1 0 -0.707107 0 -0.707107 2430.dat
1 14 49.097 -24 -119.8153 -0.707107 0 0.707107 0 1 0 -0.707107 0 -0.707107 2429.dat
1 15 42.026 -32 -42.0336 -0.707107 0 -0.707107 0 1 0 0.707107 0 -0.707107 63868.dat
1 25 70.3102 -32 -70.3178 -0.707107 0 -0.707107 0 1 0 0.707107 0 -0.707107 3023b.dat
0 STEP
1 2 -0.0076 -24 89.4445 0 0 1 0 1 0 -1 0 0 78329.dat
1 2 -0.0076 -32 129.4446 -1 0 0 0 1 0 0 0 -1 78329.dat
1 14 -50.0077 -24 119.4446 1 0 0 0 1 0 0 0 1 2430.dat
1 14 49.9924 -24 119.4445 1 0 0 0 1 0 0 0 1 2429.dat
1 15 -0.0076 -32 59.4445 0 0 1 0 1 0 -1 0 0 63868.dat
1 25 -0.0076 -32 99.4446 0 0 1 0 1 0 -1 0 0 3023b.dat
0 STEP
1 2 -0.0076 -24 -89.4445 0 0 -1 0 1 0 1 0 0 78329.dat
1 2 -0.0076 -32 -129.4445 1 0 0 0 1 0 0 0 1 78329.dat
1 14 49.9924 -24 -119.4445 -1 0 0 0 1 0 0 0 -1 2430.dat
1 14 -50.0076 -24 -119.4445 -1 0 0 0 1 0 0 0 -1 2429.dat
1 15 -0.0076 -32 -59.4445 0 0 -1 0 1 0 1 0 0 63868.dat
1 25 -0.0076 -32 -99.4446 0 0 -1 0 1 0 1 0 0 3023b.dat
0 STEP
1 2 63.2392 -24 63.2468 -0.707107 0 0.707107 0 1 0 -0.707107 0 -0.707107 78329.dat
1 2 91.5236 -32 91.5311 -0.707107 0 -0.707107 0 1 0 0.707107 0 -0.707107 78329.dat
1 14 49.0972 -24 119.8155 0.707107 0 0.707107 0 1 0 -0.707107 0 0.707107 2430.dat
1 14 119.8078 -24 49.1047 0.707107 0 0.707107 0 1 0 -0.707107 0 0.707107 2429.dat
1 15 42.026 -32 42.0336 -0.707107 0 0.707107 0 1 0 -0.707107 0 -0.707107 63868.dat
1 25 70.3104 -32 70.3179 -0.707107 0 0.707107 0 1 0 -0.707107 0 -0.707107 3023b.dat
0 STEP
1 2 -63.2545 -24 -63.2468 0.707107 0 -0.707107 0 1 0 0.707107 0 0.707107 78329.dat
1 2 -91.5387 -32 -91.531 0.707107 0 0.707107 0 1 0 -0.707107 0 0.707107 78329.dat
1 14 -49.1123 -24 -119.8154 -0.707107 0 -0.707107 0 1 0 0.707107 0 -0.707107 2430.dat
1 14 -119.823 -24 -49.1046 -0.707107 0 -0.707107 0 1 0 0.707107 0 -0.707107 2429.dat
1 15 -42.0413 -32 -42.0336 0.707107 0 -0.707107 0 1 0 0.707107 0 0.707107 63868.dat
1 25 -70.3255 -32 -70.3179 0.707107 0 -0.707107 0 1 0 0.707107 0 0.707107 3023b.dat
