0 Technic Brick with 2 Liftarms
0 Name: brickcamp-128.ldr
0 Author: Tobias Buckdahn [brick.camp]
0 !LDRAW_ORG Unofficial_Model
0 !LICENSE Licensed under CC BY 4.0 : see https://brick.camp/legal
1 71 0 0 0 1 0 0 0 1 0 -0 0 1 85943.dat
1 25 0 20 -30 0 0 1 0 -1 0 1 0 0 32064a.dat
1 4 0 10 -30 1 0 0 0 1 0 -0 0 1 32062.dat
1 71 0 -72 0 1 0 0 0 1 0 -0 0 1 85943.dat
1 25 0 -72 -30 0 0 -1 0 1 0 1 0 0 32064a.dat
1 4 0 -62 -30 1 0 0 0 1 0 -0 0 1 32062.dat
1 71 80 0 80 1 0 0 0 1 0 -0 0 1 85943.dat
1 25 80 10 40 0 0 -1 -1 0 0 0 1 0 32064a.dat
1 4 80 10 50 1 0 0 0 1 0 -0 0 1 32062.dat
1 71 80 -72 80 1 0 0 0 1 0 -0 0 1 85943.dat
1 25 80 -62 60 0 0 -1 1 -0 0 -0 -1 0 32064a.dat
1 4 80 -62 50 1 0 0 0 1 0 -0 0 1 32062.dat
