0 Technic Plates on Axle
0 Name: brickcamp-163.ldr
0 Author: Tobias Buckdahn [brick.camp]
0 !LDRAW_ORG Unofficial_Model
0 !LICENSE Licensed under CC BY 4.0 : see https://brick.camp/legal
1 25 5 16 0 1 0 0 0 1 0 0 0 1 3709b.dat
1 4 5 24 0 0 1 0 -1 0 0 0 0 1 32062.dat
1 14 5 8 0 1 0 0 0 1 0 0 0 1 4032a.dat
1 4 5 0 0 1 0 0 0 1 0 0 0 1 3022.dat
1 25 -80 24 -60 1 0 0 0 1 0 0 0 1 3709b.dat
1 14 -80 -4 -60 1 0 0 0 1 0 0 0 1 4032a.dat
1 4 -80 -32 -60 1 0 0 0 1 0 0 0 1 3022.dat
1 4 5 48 0 1 0 0 0 -1 0 0 0 -1 3022.dat
1 25 5 32 0 -1 0 0 0 -1 0 0 0 1 3709b.dat
1 14 5 40 0 -1 0 0 0 -1 0 0 0 1 4032a.dat
1 4 -80 76 -60 1 0 0 0 -1 0 0 0 -1 3022.dat
1 25 -80 60 -60 -1 0 0 0 -1 0 0 0 1 3709b.dat
1 14 -80 68 -60 -1 0 0 0 -1 0 0 0 1 4032a.dat
1 4 -79 32 -60 0 1 0 -1 0 0 0 0 1 32062.dat
