0 Plate 2 x 2 Round on Door Rails
0 Name: brickcamp-195.ldr
0 Author: Tobias Buckdahn [brick.camp]
0 !LDRAW_ORG Unofficial_Model
0 !LICENSE Licensed under CC BY 4.0 : see https://brick.camp/legal
1 7 -120 24 -10 1 0 0 0 1 0 0 0 1 32028.dat
1 8 -120 32 -10 1 0 0 0 1 0 0 0 1 3023.dat
1 7 -120 24 -70 -1 0 0 0 1 0 0 0 -1 32028.dat
1 8 -120 32 -70 -1 0 0 0 1 0 0 0 -1 3023.dat
1 7 -80 24 -10 1 0 0 0 1 0 0 0 1 32028.dat
1 8 -80 32 -10 1 0 0 0 1 0 0 0 1 3023.dat
1 7 -80 24 -70 -1 0 0 0 1 0 0 0 -1 32028.dat
1 8 -80 32 -70 -1 0 0 0 1 0 0 0 -1 3023.dat
1 14 -100 19 -40 -1 0 0 0 1 0 0 0 -1 4032a.dat
1 15 -100 40 -40 -1 0 0 0 1 0 0 0 -1 3031.dat
