0 Sausage Arch
0 Name: brickcamp-234.ldr
0 Author: Tobias Buckdahn [brick.camp]
0 !LDRAW_ORG Unofficial_Model
0 !LICENSE Licensed under CC BY 4.0 : see https://brick.camp/legal
1 4 0 -21 1 0 0 -1 -1 0 0 0 1 0 33078.dat
1 71 0 -25 20 1 0 0 0 1 0 0 0 1 4085c.dat
1 19 0 -25 20 0 0 -1 0 1 0 1 0 0 54200.dat
1 71 2 -8 20 0.866025 0.5 0 -0.5 0.866025 0 0 0 1 4085c.dat
1 19 2 -8 20 0 0.5 -0.866025 0 0.866025 0.5 1 0 0 54200.dat
1 71 6 -41 20 0.866025 -0.5 0 0.5 0.866025 0 0 0 1 4085c.dat
1 19 6 -41 20 0 -0.5 -0.866025 0 0.866025 -0.5 1 0 0 54200.dat
