0 Tile 1 x 1 with Clips Hexagonal
0 Name: brickcamp-158.ldr
0 Author: Tobias Buckdahn [brick.camp]
0 !LDRAW_ORG Unofficial_Model
0 !LICENSE Licensed under CC BY 4.0 : see https://brick.camp/legal
1 25 0 0 0 0 0 -1 0 1 0 1 0 0 2555.dat
1 25 0 -28 0 0 0 -1 0 -1 0 -1 0 0 2555.dat
1 14 0 -22.55 15.397 1 0 0 0 -0.5 -0.866025 0 0.866025 -0.5 2555.dat
1 14 0 -5.05 -14.914 1 0 0 0 0.5 0.866025 0 -0.866025 0.5 2555.dat
1 14 0 -21.674 -14.977 1 0 0 0 -0.5 0.866025 0 -0.866025 -0.5 2555.dat
1 14 0 -5.54 14.969 1 0 0 0 0.5 -0.866025 0 0.866025 0.5 2555.dat
1 4 0 -14 -3.999 1 0 0 0 0 -1 0 1 0 3070b.dat
