0 Hinge Top on Base (Tilted)
0 Name: brickcamp-71.ldr
0 Author: Tobias Buckdahn [brick.camp]
0 !LDRAW_ORG Unofficial_Model
0 !LICENSE Licensed under CC BY 4.0 : see https://brick.camp/legal
1 25 0 0 0 1 0 0 0 1 0 -0 0 1 3937.dat
1 14 0 10 -10 1 0 0 0 0 -1 0 1 0 3938.dat
1 25 60 8 60 1 0 0 0 1 0 -0 0 1 3937.dat
1 14 60 -2 50 1 0 0 0 0 -1 0 1 0 3938.dat
1 25 37.95871 -67.712883 48.514633 0.707106 0.241845 -0.664463 -0 0.939692 0.34202 0.707106 -0.241845 0.664463 3937.dat
1 14 47.021782 -61.736156 39.451557 0.707106 -0.664463 -0.241845 -0 0.34202 -0.939692 0.707106 0.664463 0.241845 3938.dat
1 14 9.674454 -67.712883 20.230373 0.707106 0.241845 -0.664463 -0 0.939692 0.34202 0.707106 -0.241845 0.664463 3004.dat
