0 Technic Axle Pin Connector #6 Ring
0 Name: brickcamp-136.ldr
0 Author: Tobias Buckdahn [brick.camp]
0 !LDRAW_ORG Unofficial_Model
0 !LICENSE Licensed under CC BY 4.0 : see https://brick.camp/legal
1 14 -42.00647 18.549881 -4.143044 0 -1 0 1 0 0 0 0 1 32014.dat
1 25 17.99353 18.549881 -4.143044 0 0 1 1 0 0 0 1 0 32014.dat
1 14 17.993534 18.549881 -64.143539 0 1 0 1 0 0 0 0 -1 32014.dat
1 25 -42.00647 18.549881 -64.143547 0 0 -1 1 0 0 0 -1 0 32014.dat
1 4 81.99353 18.549881 -35.143539 0 0.707107 -0.707107 0.707107 -0.5 -0.5 -0.707107 -0.5 -0.5 32014.dat
