0 Brick Tilted in Brick Frame
0 Name: brickcamp-11.ldr
0 Author: Tobias Buckdahn [brick.camp]
0 !LDRAW_ORG Unofficial_Model
0 !LICENSE Licensed under CC BY 4.0 : see https://brick.camp/legal
1 25 -45 -13 -12 1 0 0 0 0 -1 0 1 0 3003.dat
0 STEP
1 25 -45 161 0 1 0 0 0 1 0 -0 0 1 3068b.dat
1 4 -45 169 0 1 0 0 0 1 0 -0 0 1 3020.dat
1 14 -75 113 0 0 0 1 0 1 0 -1 0 0 3004.dat
1 14 -75 57 0 0 0 1 0 1 0 -1 0 0 3004.dat
1 14 -15 113 0 0 0 1 0 1 0 -1 0 0 3004.dat
1 14 -15 57 0 0 0 1 0 1 0 -1 0 0 3004.dat
1 4 -45 -77 0 1 0 0 0 1 0 -0 0 1 3020.dat
0 STEP
1 25 -175 57 -132 1 0 0 0 0 -1 0 1 0 3003.dat
1 25 -175 77 -112 1 0 0 0 1 0 -0 0 1 3068b.dat
1 4 -175 85 -112 1 0 0 0 1 0 -0 0 1 3020.dat
1 14 -205 61 -112 0 0 1 0 1 0 -1 0 0 3004.dat
1 14 -205 37 -112 0 0 1 0 1 0 -1 0 0 3004.dat
1 14 -145 61 -112 0 0 1 0 1 0 -1 0 0 3004.dat
1 14 -145 37 -112 0 0 1 0 1 0 -1 0 0 3004.dat
1 4 -175 29 -112 1 0 0 0 1 0 -0 0 1 3020.dat
1 25 -45 -13 -60 1 0 0 0 -0 -1 0 1 -0 3022.dat
1 25 -45 -13 52 1 0 0 0 -0 -1 0 1 -0 3022.dat
0 STEP
