0 Plate Lever Sandwich
0 Name: brickcamp-22.ldr
0 Author: Tobias Buckdahn [brick.camp]
0 !LDRAW_ORG Unofficial_Model
0 !LICENSE Licensed under CC BY 4.0 : see https://brick.camp/legal
1 14 0 2 0 1 0 0 0 1 0 -0 0 1 3031.dat
1 4 -10 10 -7 0 0 -1 1 0 0 0 -1 0 4593.dat
1 4 10 10 -7 0 0 -1 1 0 0 0 -1 0 4593.dat
1 25 0 18 0 -1 0 0 -0 -1 0 0 0 1 3031.dat
1 14 -90 -46 -90 1 0 0 0 1 0 -0 0 1 3031.dat
1 4 -100 10 -97 0 0 -1 1 0 0 0 -1 0 4593.dat
1 4 -80 10 -97 0 0 -1 1 0 0 0 -1 0 4593.dat
1 25 -90 18 -90 -1 0 0 -0 -1 0 0 0 1 3031.dat
