0 Technic Axle/Pin/Axle Connector Cube
0 Name: brickcamp-167.ldr
0 Author: Tobias Buckdahn [brick.camp]
0 !LDRAW_ORG Unofficial_Model
0 !LICENSE Licensed under CC BY 4.0 : see https://brick.camp/legal
1 7 20 26 30 1 0 0 0 1 0 0 0 1 4519.dat
1 7 20 66 30 1 0 0 0 1 0 0 0 1 4519.dat
1 0 0 46 30 1 0 0 0 1 0 0 0 1 32184.dat
1 0 40 46 30 1 0 0 0 1 0 0 0 1 32184.dat
1 7 20 46 50 0 0 1 -1 0 0 0 -1 0 4519.dat
1 7 20 46 10 0 0 1 -1 0 0 0 -1 0 4519.dat
1 0 20 66 29.998 0 0 1 -1 0 0 0 -1 0 32184.dat
1 0 20 25.998 29.999 0 0 1 -1 0 0 0 -1 0 32184.dat
1 7 40 46 30 0 -1 0 0 0 -1 1 0 0 4519.dat
1 7 0 46 30 0 -1 0 0 0 -1 1 0 0 4519.dat
1 0 19.998 46 9.999 0 -1 0 0 0 -1 1 0 0 32184.dat
1 0 20 46 50.002 0 -1 0 0 0 -1 1 0 0 32184.dat
