0 Pneumatic T with Plate 1x4 Offset
0 Name: brickcamp-76.ldr
0 Author: Tobias Buckdahn [brick.camp]
0 !LDRAW_ORG Unofficial_Model
0 !LICENSE Licensed under CC BY 4.0 : see https://brick.camp/legal
1 14 0 0 0 1 0 0 0 1 0 -0 0 1 3004.dat
1 4 0 -8 0 1 0 0 0 1 0 -0 0 1 4590.dat
1 4 0 32 0 -1 0 0 0 -1 0 0 0 1 4590.dat
1 71 -30 12.171499 10.171497 -1 0 0 0 0 -1 0 -1 0 4697b.dat
1 71 30 12.171499 10.171497 -1 0 0 0 0 -1 0 -1 0 4697b.dat
1 14 70 0 70 1 0 0 0 1 0 -0 0 1 3004.dat
1 4 70 -40 70 1 0 0 0 1 0 -0 0 1 4590.dat
1 4 70 64 70 -1 0 0 0 -1 0 0 0 1 4590.dat
1 71 40 12.171499 80.171494 -1 0 0 0 0 -1 0 -1 0 4697b.dat
1 71 100 12.171499 80.171494 -1 0 0 0 0 -1 0 -1 0 4697b.dat
