0 Brick Octagonal Square
0 Name: brickcamp-98.ldr
0 Author: Tobias Buckdahn [brick.camp]
0 !LDRAW_ORG Unofficial_Model
0 !LICENSE Licensed under CC BY 4.0 : see https://brick.camp/legal
1 25 0 0 0 -0 0 1 -0 1 0 -1 -0 -0 6042.dat
1 25 40 0 0 -0 0 -1 -0 1 0 1 0 -0 6042.dat
1 14 140 20.000004 0 0 -1 0 0 0 1 -1 -0 0 6042.dat
1 14 140 60 0 -0 -1 0 -0 -0 -1 1 -0 0 6042.dat
1 25 120 160.41423 0 0 0 -1 0 -1 0 -1 0 0 6042.dat
1 25 80.000015 160.414215 0 0 0 1 0 -1 0 1 0 0 6042.dat
1 14 -20 140.414215 0 0 1 0 0 0 -1 -1 0 0 6042.dat
1 14 -19.999985 100.414207 0 0 1 0 0 0 1 1 0 0 6042.dat
1 14 -32 42 -100 0 0 -1 0 1 0 1 0 0 6042.dat
