0 Wedged Triangle with Inscribed Circle
0 Name: brickcamp-257.ldr
0 Author: Tobias Buckdahn [brick.camp]
0 !LDRAW_ORG Unofficial_Model
0 !LICENSE Licensed under CC BY 4.0 : see https://brick.camp/legal
1 7 45.9507 -8 -57.8951 0.798636 0 -0.601815 0 1 0 0.601815 0 0.798636 78329.dat
1 4 55.9053 0 -37.8724 -0.601816 0 -0.798635 0 1 0 0.798635 0 -0.601816 43723.dat
1 25 15.9735 0 -67.9632 0.601815 0 0.798636 0 1 0 -0.798636 0 0.601815 24307.dat
1 7 40 -8 -10 1 0 0 0 1 0 0 0 1 3710.dat
1 7 -10 -8 -50 0 0 1 0 1 0 -1 0 0 3623.dat
1 320 50 0 -20 0 0 -1 0 1 0 1 0 0 43722.dat
1 14 0 0 -60 1 0 0 0 1 0 0 0 1 24299.dat
1 19 10 0 -30 0.000001 0 -1 0 1 0 1 0 0.000001 2420.dat
1 47 20 -8 -40 0 0 -1 0 1 0 1 0 0 4150.dat
