0 Plate with Technic Holes and Jumpers
0 Name: brickcamp-75.ldr
0 Author: Tobias Buckdahn [brick.camp]
0 !LDRAW_ORG Unofficial_Model
0 !LICENSE Licensed under CC BY 4.0 : see https://brick.camp/legal
1 14 -19.414217 -0.585784 -7.999999 0 0 1 1 0 0 0 1 0 2817.dat
1 25 -19.414217 -20.585785 2.000001 -1 0 0 0 -1 0 0 0 1 3794b.dat
1 25 -19.414217 19.414215 1.999999 -1 0 0 0 1 0 0 0 -0.999999 3794b.dat
1 14 40.585785 -0.585784 56 0 0 1 1 0 0 0 1 0 2817.dat
1 25 40.585785 -36.585785 66 -1 0 0 0 -1 0 0 0 1 3794b.dat
1 25 40.585785 35.414215 66 -1 0 0 0 1 0 0 0 -0.999999 3794b.dat
