0 Axle 3 with Stud in Technic Brick
0 Name: brickcamp-2.ldr
0 Author: Tobias Buckdahn [brick.camp]
0 !LDRAW_ORG Unofficial_Model
0 !LICENSE Licensed under CC BY 4.0 : see https://brick.camp/legal
1 14 -59.999996185302734375 -24.0249042510986328125 -30.0000019073486328125 1 0 0 0 1 0 0 0 1 32064a.dat
1 28 -60.000003814697265625 -14.02490711212158203125 -11.99999141693115234375 0 0 1 0 0.999999940395355224609375 0 -1 0 0 6587.dat
1 14 -100 -24.0249042510986328125 -70.00000762939453125 1 0 0 0 1 0 0 0 1 32064a.dat
1 28 -92 -6.999903202056884765625 -100.0000152587890625 -1 0 0 0 1 0 0 0 -1 6587.dat
