0 Wrench Clipped Offset
0 Name: brickcamp-44.ldr
0 Author: Tobias Buckdahn [brick.camp]
0 !LDRAW_ORG Unofficial_Model
0 !LICENSE Licensed under CC BY 4.0 : see https://brick.camp/legal
1 72 0 -18.499966 1.500025 1 0 0 0 0 -1 0 1 0 55300.dat
1 14 0 -14.499966 -25.499969 1 0 0 0 1 0 0 -0 1 3024.dat
1 25 0 -12.499966 -5.499973 1 0 0 0 1 0 0 -0 1 2555.dat
1 72 -40 -38.499966 -38.499977 -1 0 0 0 1 0 0 0 -1 55300.dat
1 14 -40 -14.499966 -65.499969 1 0 0 0 1 0 0 -0 1 3024.dat
1 25 -40 -12.499966 -45.499973 1 0 0 0 1 0 0 -0 1 2555.dat
