0 Headlight Square
0 Name: brickcamp-178.ldr
0 Author: Tobias Buckdahn [brick.camp]
0 !LDRAW_ORG Unofficial_Model
0 !LICENSE Licensed under CC BY 4.0 : see https://brick.camp/legal
1 14 0 24 -130 1 0 0 0 1 0 0 0 1 4070.dat
1 4 0 34 -160 1 0 0 0 0 -1 0 1 0 4070.dat
1 14 0 64 -150 1 0 0 0 -1 0 0 0 -1 4070.dat
1 4 0 54 -120 1 0 0 0 0 1 0 -1 0 4070.dat
1 15 0 -16 -130 1 0 0 0 1 0 0 0 1 4070.dat
1 0 0 -6 -160 1 0 0 0 0 -1 0 1 0 4070.dat
1 15 0 24 -150 1 0 0 0 -1 0 0 0 -1 4070.dat
1 0 0 14 -120 1 0 0 0 0 1 0 -1 0 4070.dat
1 15 0 -16 -170 1 0 0 0 1 0 0 0 1 4070.dat
1 0 0 -6 -200 1 0 0 0 0 -1 0 1 0 4070.dat
1 15 0 24 -190 1 0 0 0 -1 0 0 0 -1 4070.dat
1 0 0 14 -160 1 0 0 0 0 1 0 -1 0 4070.dat
1 15 0 24 -170 1 0 0 0 1 0 0 0 1 4070.dat
1 0 0 34 -200 1 0 0 0 0 -1 0 1 0 4070.dat
1 15 0 64 -190 1 0 0 0 -1 0 0 0 -1 4070.dat
1 0 0 54 -160 1 0 0 0 0 1 0 -1 0 4070.dat
