0 Technic Pin Connector Round
0 Name: brickcamp-151.ldr
0 Author: Tobias Buckdahn [brick.camp]
0 !LDRAW_ORG Unofficial_Model
0 !LICENSE Licensed under CC BY 4.0 : see https://brick.camp/legal
1 14 37 -16 44 0 -1 0 1 0 0 0 0 1 62462.dat
1 25 37 -36 44 0 -1 0 -1 0 0 0 0 -1 4274.dat
1 25 37 4 44 0 -1 0 1 0 0 0 0 1 4274.dat
1 14 12 -16 16 0 -1 0 1 0 0 0 0 1 62462.dat
1 14 64 -16 76 0 -1 0 1 0 0 0 0 1 62462.dat
1 47 64 -36 76 1 0 0 0 -1 0 0 0 -1 3024.dat
1 47 64 4 76 -1 0 0 0 1 0 0 0 -1 3024.dat
1 25 12 -66 16 0 -1 0 -1 0 0 0 0 -1 4274.dat
1 25 12 34 16 0 -1 0 1 0 0 0 0 1 4274.dat
