0 Panel under Doorrail
0 Name: brickcamp-21.ldr
0 Author: Tobias Buckdahn [brick.camp]
0 !LDRAW_ORG Unofficial_Model
0 !LICENSE Licensed under CC BY 4.0 : see https://brick.camp/legal
1 14 -90 24 -60 -1 0 0 0 1 0 0 0 -1 4864b.dat
1 25 -50 80 -50 -1 0 0 0 -1 0 0 0 1 3022.dat
1 4 -50 64 -40 -1 0 0 0 -1 0 0 0 1 3023.dat
1 25 -50 48 -40 -1 0 0 0 -1 0 0 0 1 32028.dat
1 14 0 24 -10 -1 0 0 0 1 0 0 0 -1 4864b.dat
1 25 0 80 0 -1 0 0 0 -1 0 0 0 1 3022.dat
1 4 0 72 10 -1 0 0 0 -1 0 0 0 1 3023.dat
1 25 0 64 10 -1 0 0 0 -1 0 0 0 1 32028.dat
