0 untitled model
0 Name: model.ldr
0 Author: brick.camp (by Tobias Buckdahn)
1 71 -10 -34.5714 -2.4286 1 0 0 0 1 0 0 0 1 2555.dat
1 71 -10 -16.5714 -20.4286 0 0 1 1 0 0 0 1 0 3023b.dat
1 71 -10 -16.5714 15.5714 0 0 1 -1 0 0 0 -1 0 3023b.dat
1 71 10 -34.5714 -2.4286 1 0 0 0 1 0 0 0 1 2555.dat
1 71 10 -16.5714 -20.4286 0 0 1 1 0 0 0 1 0 3023b.dat
1 71 10 -16.5714 15.5714 0 0 1 -1 0 0 0 -1 0 3023b.dat
1 71 0 -26.5714 31.5714 1 0 0 0 0 1 0 -1 0 99206.dat
1 71 0 -26.5714 -36.4286 -1 0 0 0 0 1 0 1 0 99206.dat
1 71 10 -44.5714 -30.4286 -1 0 0 0 1 0 0 0 -1 4085c.dat
1 71 -10 -44.5714 -30.4286 -1 0 0 0 1 0 0 0 -1 4085c.dat
1 71 0 -26.5714 31.5714 1 0 0 0 0 1 0 -1 0 99206.dat
1 71 -10 -44.5714 25.5714 1 0 0 0 1 0 0 0 1 4085c.dat
1 71 10 -44.5714 25.5714 1 0 0 0 1 0 0 0 1 4085c.dat
1 0 0 -26.5714 -2.4286 1 0 0 0 1 0 0 0 1 52107.dat
1 14 60 -34.5714 -11.4286 1 0 0 0 1 0 0 0 1 2555.dat
1 1 60 -16.5714 -29.4286 0 0 1 1 0 0 0 1 0 3023b.dat
1 1 60 -16.5714 6.5714 0 0 1 -1 0 0 0 -1 0 3023b.dat
1 14 80 -34.5714 -11.4286 1 0 0 0 1 0 0 0 1 2555.dat
1 1 80 -16.5714 6.5714 0 0 1 -1 0 0 0 -1 0 3023b.dat
1 71 70 -26.5714 22.5714 1 0 0 0 0 1 0 -1 0 99206.dat
1 71 70 -26.5714 22.5714 1 0 0 0 0 1 0 -1 0 99206.dat
1 4 60 -44.5714 16.5714 1 0 0 0 1 0 0 0 1 4085c.dat
1 0 70 -26.5714 -11.4286 1 0 0 0 1 0 0 0 1 52107.dat
