0 untitled model
0 Name: model.ldr
0 Author: brick.camp (by Tobias Buckdahn)
1 15 -107.5 120 -112.5 0 0 1 0 1 0 -1 0 0 54200.dat
1 71 -107.5 120 -112.5 0 0 1 0 1 0 -1 0 0 3024.dat
1 15 -107.5 128 -112.5 0 0 1 0 -1 0 1 0 0 54200.dat
1 15 -126.0359 115 -112.5 0 -0.866025 -0.5 0 -0.5 0.866025 -1 0 0 54200.dat
1 71 -126.0359 115 -112.5 0 -0.866025 -0.5 0 -0.5 0.866025 -1 0 0 3024.dat
1 15 -132.9641 111 -112.5 0 0.866025 -0.5 0 0.5 0.866025 1 0 0 54200.dat
1 15 -112.9641 101 -112.5 0 0.866025 -0.5 0 -0.5 -0.866025 -1 0 0 54200.dat
1 71 -112.9641 101 -112.5 0 0.866025 -0.5 0 -0.5 -0.866025 -1 0 0 3024.dat
1 15 -106.0359 97 -112.5 0 -0.866025 -0.5 0 0.5 -0.866025 1 0 0 54200.dat
1 14 -130.0359 87 -122.5 0.866025 0 -0.5 -0.5 0 -0.866025 0 0.999999 0 3622.dat
1 14 -130.0359 136 -122.5 0.866025 0 0.5 0.5 0 -0.866025 0 0.999999 0 3622.dat
1 14 -87.0359 112 -122.5 0 0 0.999999 0.999999 0 0 0 0.999999 0 3622.dat
1 25 -106.0359 127 -98.5 -0.258819 0 0.965925 0.965925 0 0.258819 0 0.999999 0 2420.dat
1 25 -133.0359 112 -98.5 -0.707106 0 -0.707106 -0.707106 0 0.707106 0 0.999999 0 2420.dat
1 25 -107.0359 97 -98.5 0.965925 0 -0.258819 -0.258819 0 -0.965925 0 0.999999 0 2420.dat
1 15 -157.5 -24 -204.5 0 0 1 0 1 0 -1 0 0 54200.dat
1 71 -157.5 -16 -214.5 0 0 1 0 1 0 -1 0 0 3024.dat
1 15 -157.5 0 -224.5 0 0 1 0 -1 0 1 0 0 54200.dat
1 15 -142.0359 -5 -164.5 0 -0.866025 -0.5 0 -0.5 0.866025 -1 0 0 54200.dat
1 71 -142.0359 -5 -164.5 0 -0.866025 -0.5 0 -0.5 0.866025 -1 0 0 3024.dat
1 15 -148.9641 -9 -164.5 0 0.866025 -0.5 0 0.5 0.866025 1 0 0 54200.dat
1 15 -128.9641 -19 -154.5 0 0.866025 -0.5 0 -0.5 -0.866025 -1 0 0 54200.dat
1 71 -128.9641 -19 -154.5 0 0.866025 -0.5 0 -0.5 -0.866025 -1 0 0 3024.dat
1 15 -122.0359 -23 -154.5 0 -0.866025 -0.5 0 0.5 -0.866025 1 0 0 54200.dat
1 14 -130.0359 -33 -124.5 0.866025 0 -0.5 -0.5 0 -0.866025 0 0.999999 0 3622.dat
1 14 -130.0359 16 -124.5 0.866025 0 0.5 0.5 0 -0.866025 0 0.999999 0 3622.dat
1 14 -87.0359 -8 -124.5 0 0 0.999999 0.999999 0 0 0 0.999999 0 3622.dat
1 25 -66.0359 7 -70.5 -0.258819 0 0.965925 0.965925 0 0.258819 0 0.999999 0 2420.dat
1 25 -93.0359 -8 -70.5 -0.707106 0 -0.707106 -0.707106 0 0.707106 0 0.999999 0 2420.dat
1 25 -67.0359 -23 -70.5 0.965925 0 -0.258819 -0.258819 0 -0.965925 0 0.999999 0 2420.dat
