0 Plate Cylinder (Octagon)
0 Name: brickcamp-244.ldr
0 Author: Tobias Buckdahn [brick.camp]
0 !LDRAW_ORG Unofficial_Model
0 !LICENSE Licensed under CC BY 4.0 : see https://brick.camp/legal
1 71 0 -8 0 1 0 0 0 1 0 0 0 1 3024.dat
1 72 0 -16 0 1 0 0 0 1 0 0 0 1 3024.dat
1 0 0 -40 0 1 0 0 0 1 0 0 0 1 4733.dat
1 14 18 -20 0 0 -1 0 1 0 0 0 0 1 3023b.dat
1 25 26 -20 0 0 -1 0 1 0 0 0 0 1 3023b.dat
1 14 -18 -20 0 0 1 0 1 0 0 0 0 -1 3023b.dat
1 25 -26 -20 0 0 1 0 1 0 0 0 0 -1 3023b.dat
1 14 0 -20 -18 0 0 1 1 0 0 0 1 0 3023b.dat
1 25 0 -20 -26 0 0 1 1 0 0 0 1 0 3023b.dat
1 14 0 -20 18 0 0 -1 1 0 0 0 -1 0 3023b.dat
1 25 0 -20 26 0 0 -1 1 0 0 0 -1 0 3023b.dat
1 71 0 -48 0 0.707107 0 0.707107 0 1 0 -0.707107 0 0.707107 3024.dat
1 72 0 -56 0 0.707107 0 0.707107 0 1 0 -0.707107 0 0.707107 3024.dat
1 0 0 -80 0 0.707107 0 0.707107 0 1 0 -0.707107 0 0.707107 4733.dat
1 14 12.7279 -60 -12.7279 0 -0.707107 0.707107 1 0 0 0 0.707107 0.707107 3023b.dat
1 25 18.3848 -60 -18.3848 0 -0.707107 0.707107 1 0 0 0 0.707107 0.707107 3023b.dat
1 14 -12.7279 -60 12.7279 0 0.707107 -0.707107 1 0 0 0 -0.707107 -0.707107 3023b.dat
1 25 -18.3848 -60 18.3848 0 0.707107 -0.707107 1 0 0 0 -0.707107 -0.707107 3023b.dat
1 14 -12.7279 -60 -12.7279 0 0.707107 0.707107 1 0 0 0 0.707107 -0.707107 3023b.dat
1 25 -18.3848 -60 -18.3848 0 0.707107 0.707107 1 0 0 0 0.707107 -0.707107 3023b.dat
1 14 12.7279 -60 12.7279 0 -0.707107 -0.707107 1 0 0 0 -0.707107 0.707107 3023b.dat
1 25 18.3848 -60 18.3848 0 -0.707107 -0.707107 1 0 0 0 -0.707107 0.707107 3023b.dat
1 19 0 -40 -34 0 0 1 1 0 0 0 1 0 3710.dat
1 19 0 -40 34 0 0 -1 1 0 0 0 -1 0 3710.dat
1 19 -34 -40 0 0 1 0 1 0 0 0 0 -1 3710.dat
1 19 34 -40 0 0 -1 0 1 0 0 0 0 1 3710.dat
1 19 -24.0416 -40 -24.0416 0 0.707107 0.707107 1 0 0 0 0.707107 -0.707107 3710.dat
1 19 24.0416 -40 24.0416 0 -0.707107 -0.707107 1 0 0 0 -0.707107 0.707107 3710.dat
1 19 -24.0416 -40 24.0416 0 0.707107 -0.707107 1 0 0 0 -0.707107 -0.707107 3710.dat
1 19 24.0416 -40 -24.0416 0 -0.707107 0.707107 1 0 0 0 0.707107 0.707107 3710.dat
1 71 70.177 -9 62.8818 0.92388 0 -0.382683 0 1 0 0.382683 0 0.92388 3024.dat
1 72 70.177 -17 62.8818 0.92388 0 -0.382683 0 1 0 0.382683 0 0.92388 3024.dat
1 0 70.177 -41 62.8818 0.92388 0 -0.382683 0 1 0 0.382683 0 0.92388 4733.dat
1 14 86.8068 -21 69.7701 0 -0.92388 -0.382683 1 0 0 0 -0.382683 0.92388 3023b.dat
1 25 94.1978 -21 72.8315 0 -0.92388 -0.382683 1 0 0 0 -0.382683 0.92388 3023b.dat
1 14 53.5471 -21 55.9935 0 0.92388 0.382683 1 0 0 0 0.382683 -0.92388 3023b.dat
1 25 46.1561 -21 52.932 0 0.92388 0.382683 1 0 0 0 0.382683 -0.92388 3023b.dat
1 14 77.0653 -21 46.2519 0 -0.382683 0.92388 1 0 0 0 0.92388 0.382683 3023b.dat
1 25 80.1267 -21 38.8609 0 -0.382683 0.92388 1 0 0 0 0.92388 0.382683 3023b.dat
1 14 63.2887 -21 79.5116 0 0.382683 -0.92388 1 0 0 0 -0.92388 -0.382683 3023b.dat
1 25 60.2272 -21 86.9026 0 0.382683 -0.92388 1 0 0 0 -0.92388 -0.382683 3023b.dat
1 71 70.177 -52 62.8818 0.92388 0 0.382683 0 1 0 -0.382683 0 0.92388 3024.dat
1 72 70.177 -64 62.8818 0.92388 0 0.382683 0 1 0 -0.382683 0 0.92388 3024.dat
1 0 70.177 -94 62.8818 0.92388 0 0.382683 0 1 0 -0.382683 0 0.92388 4733.dat
1 14 60.2272 -74 38.8609 0 0.382683 0.92388 1 0 0 0 0.92388 -0.382683 3023b.dat
1 25 53.3389 -74 22.231 0 0.382683 0.92388 1 0 0 0 0.92388 -0.382683 3023b.dat
1 14 81.2748 -74 89.6743 0 -0.382683 -0.92388 1 0 0 0 -0.92388 0.382683 3023b.dat
1 25 88.1631 -74 106.3042 0 -0.382683 -0.92388 1 0 0 0 -0.92388 0.382683 3023b.dat
1 14 96.1577 -74 53.7438 0 -0.92388 0.382683 1 0 0 0 0.382683 0.92388 3023b.dat
1 25 112.7876 -74 46.8555 0 -0.92388 0.382683 1 0 0 0 0.382683 0.92388 3023b.dat
1 14 45.3443 -74 74.7914 0 0.92388 -0.382683 1 0 0 0 -0.382683 -0.92388 3023b.dat
1 25 28.7144 -74 81.6797 0 0.92388 -0.382683 1 0 0 0 -0.382683 -0.92388 3023b.dat
