0 Handle with Clip as Jumper
0 Name: brickcamp-30.ldr
0 Author: Tobias Buckdahn [brick.camp]
0 !LDRAW_ORG Unofficial_Model
0 !LICENSE Licensed under CC BY 4.0 : see https://brick.camp/legal
1 14 0 0 -20 -1 0 0 0 1 0 0 0 -1 6019.dat
1 14 -50 -8 -90 -1 0 0 0 1 0 0 0 -1 4085b.dat
1 25 0 0 20 1 0 0 0 1 0 -0 0 1 2540.dat
1 25 -50 0 -50 1 0 0 0 1 0 -0 0 1 4623.dat
1 14 -70 0 40 -1 0 0 0 1 0 0 0 -1 60476.dat
1 14 -130 0 -20 -1 0 0 0 1 0 0 0 -1 2921.dat
1 25 -70 0 80 1 0 0 0 1 0 -0 0 1 30236.dat
1 25 -130 0 20 1 0 0 0 1 0 -0 0 1 30237.dat
