0 Hinge Brick Rings, 22.5° Offset
0 Name: brickcamp-229.ldr
0 Author: Tobias Buckdahn [brick.camp]
0 !LDRAW_ORG Unofficial_Model
0 !LICENSE Licensed under CC BY 4.0 : see https://brick.camp/legal
1 72 82 -10.4526 -0.5474 0 -1 0 -0 0 -1 1 0 -0 39893.dat
1 72 -1 -10.4526 -82.5474 1 0 0 0 -0 -1 0 1 -0 39893.dat
0 !LEOCAD PIECE PIVOT  -30 10 0 1 0 0 0 1 0 0 0 1
1 71 57.858 -10.4526 57.737 -0.707107 -0.707107 0 -0 0 -1 0.707107 -0.707107 -0 39893.dat
0 !LEOCAD PIECE PIVOT  -30 10 0 1 0 0 0 1 0 0 0 1
1 71 57.2844 -10.4526 -58.4054 0.707107 -0.707107 -0 -0 -0 -1 0.707107 0.707107 -0 39893.dat
1 72 -83.2859 -10.4526 0.5948 0 1 0 0 0 -1 -1 0 -0 39893.dat
1 72 -0.2859 -10.4526 82.5948 -1 0 0 0 0 -1 0 -1 -0 39893.dat
0 !LEOCAD PIECE PIVOT  -30 10 0 1 0 0 0 1 0 0 0 1
1 71 -59.1438 -10.4526 -57.6897 0.707107 0.707107 0 0 -0 -1 -0.707107 0.707107 -0 39893.dat
0 !LEOCAD PIECE PIVOT  -30 10 0 1 0 0 0 1 0 0 0 1
1 71 -58.5703 -10.4526 58.4528 -0.707107 0.707107 -0 0 0 -1 -0.707107 -0.707107 -0 39893.dat
0 STEP
1 14 -1 -10.4526 -58.5474 1 0 0 0 -0 -1 0 1 -0 32000.dat
1 14 0 -10.4526 58.4526 -1 0 0 0 0 -1 0 -1 -0 32000.dat
1 14 58 -10.4526 -0.5474 0 -1 0 -0 0 -1 1 0 -0 32000.dat
1 14 -59 -10.4526 0.4526 0 1 0 0 0 -1 -1 0 -0 32000.dat
0 STEP
1 0 48 -20.4526 9.4526 -0 0 1 1 -0 0 0 1 -0 4459.dat
1 0 9 -20.4526 -48.5474 0 0 1 1 -0 0 0 1 0 4459.dat
1 0 -49 -20.4526 -9.5474 0 0 1 1 -0 0 0 1 0 4459.dat
1 0 -10 -20.4526 48.4526 0 0 1 1 -0 0 0 1 0 4459.dat
0 STEP
1 14 21.4373 -30.4526 -54.2406 0.92388 -0.382683 -0 -0 -0 -1 0.382683 0.92388 -0 32000.dat
1 14 -22.4128 -30.4526 54.236 -0.92388 0.382683 -0 0 0 -1 -0.382683 -0.92388 -0 32000.dat
1 14 53.7505 -30.4526 21.9227 -0.382683 -0.92388 -0 -0 0 -1 0.92388 -0.382683 -0 32000.dat
1 14 -54.726 -30.4526 -21.9274 0.382683 0.92388 -0 0 -0 -1 -0.92388 0.382683 -0 32000.dat
0 STEP
1 72 75.9236 -30.4526 31.1071 -0.382683 -0.92388 -0 -0 0 -1 0.92388 -0.382683 -0 39893.dat
1 72 30.6217 -30.4526 -76.4138 0.92388 -0.382683 -0 -0 -0 -1 0.382683 0.92388 -0 39893.dat
0 !LEOCAD PIECE PIVOT  -30 10 0 1 0 0 0 1 0 0 0 1
1 71 31.3148 -30.4526 75.7161 -0.92388 -0.382683 0 -0 0 -1 0.382683 -0.92388 -0 39893.dat
0 !LEOCAD PIECE PIVOT  -30 10 0 1 0 0 0 1 0 0 0 1
1 71 75.2306 -30.4526 -31.8049 0.382683 -0.92388 0 -0 -0 -1 0.92388 0.382683 -0 39893.dat
1 72 -77.2177 -30.4526 -31.0898 0.382683 0.92388 -0 0 -0 -1 -0.92388 0.382683 -0 39893.dat
1 72 -31.9158 -30.4526 76.4312 -0.92388 0.382683 -0 0 0 -1 -0.382683 -0.92388 -0 39893.dat
0 !LEOCAD PIECE PIVOT  -30 10 0 1 0 0 0 1 0 0 0 1
1 71 -32.6089 -30.4526 -75.6988 0.92388 0.382683 0 0 -0 -1 -0.382683 0.92388 -0 39893.dat
0 !LEOCAD PIECE PIVOT  -30 10 0 1 0 0 0 1 0 0 0 1
1 71 -76.5247 -30.4526 31.8223 -0.382683 0.92388 0 0 0 -1 -0.92388 -0.382683 -0 39893.dat
