0 Cheese on Cheese
0 Name: brickcamp-164.ldr
0 Author: Tobias Buckdahn [brick.camp]
0 !LDRAW_ORG Unofficial_Model
0 !LICENSE Licensed under CC BY 4.0 : see https://brick.camp/legal
1 46 4.825 34 27.319 0 0 1 1 0 0 0 1 0 54200.dat
1 57 4.823 34 7.319 0 0 -1 1 0 0 0 -1 0 54200.dat
1 46 24.823 34 27.32 0 0 1 1 0 0 0 1 0 54200.dat
1 57 24.824 34 7.319 0 0 -1 1 0 0 0 -1 0 54200.dat
1 14 -15.177 34 27.321 0 0 1 1 0 0 0 1 0 54200.dat
1 25 -15.176 34 7.319 0 0 -1 1 0 0 0 -1 0 54200.dat
1 14 -35.176 34 27.32 0 0 1 1 0 0 0 1 0 54200.dat
1 25 -35.177 34 7.318 0 0 -1 1 0 0 0 -1 0 54200.dat
1 38 -55.176 24 17.318 -1 0 0 0 1 0 0 0 -1 6541.dat
1 47 -5.176 34 7.319 -1 0 0 0 0 -1 0 -1 0 3666.dat
1 47 -5.176 34 27.319 -1 0 0 0 0 1 0 1 0 3666.dat
