0 Technic Pin Connector Plate Hexagon
0 Name: brickcamp-238.ldr
0 Author: Tobias Buckdahn [brick.camp]
0 !LDRAW_ORG Unofficial_Model
0 !LICENSE Licensed under CC BY 4.0 : see https://brick.camp/legal
1 71 0 -6 0 1 0 0 0 0 -1 0 1 0 4185b.dat
1 71 0 -16 0 1 0 0 0 0 -1 0 1 0 4185b.dat
1 0 17 -20 -10 0 0 1 1 0 0 0 1 0 4459.dat
1 0 -17 -20 10 0 0 1 1 0 0 0 1 0 4459.dat
1 0 -17.1603 -20 -9.7224 0 0.866025 -0.5 1 0 0 0 -0.5 -0.866025 4459.dat
1 0 17.1603 -20 9.7224 0 0.866025 -0.5 1 0 0 0 -0.5 -0.866025 4459.dat
1 0 0.1603 -20 19.7225 0 -0.866026 -0.5 1 0 0 0 -0.5 0.866026 4459.dat
1 0 -0.1603 -20 -19.7225 0 -0.866026 -0.5 1 0 0 0 -0.5 0.866026 4459.dat
1 72 0 -30 46 1 0 0 0 0 1 0 -1 0 32529.dat
1 72 0 -30 -46 -1 0 0 0 0 1 0 1 0 32529.dat
1 72 39.8372 -30 23 0.5 -0.866025 0 0 0 1 -0.866025 -0.5 0 32529.dat
1 72 -39.8372 -30 -23 -0.5 0.866025 0 0 0 1 0.866025 0.5 0 32529.dat
1 72 39.8372 -30 -23 -0.5 -0.866026 0 0 0 1 -0.866026 0.5 0 32529.dat
1 72 -39.8372 -30 23 0.5 0.866026 0 0 0 1 0.866026 -0.5 0 32529.dat
1 10 10 -20 -54 0 0 -1 -1 0 0 0 1 0 48336.dat
1 14 -10 -20 -54 0 0 1 1 0 0 0 1 0 60470a.dat
1 10 -10 -20 54 0 0 1 -1 0 0 0 -1 0 48336.dat
1 14 10 -20 54 0 0 -1 1 0 0 0 -1 0 60470a.dat
1 10 -41.7654 -20 -35.6603 0 0.866025 -0.5 -1 0 0 0 0.5 0.866025 48336.dat
1 14 -51.7654 -20 -18.3397 0 0.866025 0.5 1 0 0 0 0.5 -0.866025 60470a.dat
1 10 41.7654 -20 35.6603 0 -0.866025 0.5 -1 0 0 0 -0.5 -0.866025 48336.dat
1 14 51.7654 -20 18.3397 0 -0.866025 -0.5 1 0 0 0 -0.5 0.866025 60470a.dat
1 10 -51.7654 -20 18.3397 0 0.866026 0.5 -1 0 0 0 -0.5 0.866026 48336.dat
1 14 -41.7653 -20 35.6603 0 0.866026 -0.5 1 0 0 0 -0.5 -0.866026 60470a.dat
1 10 51.7654 -20 -18.3397 0 -0.866026 -0.5 -1 0 0 0 0.5 -0.866026 48336.dat
1 14 41.7653 -20 -35.6603 0 -0.866026 0.5 1 0 0 0 0.5 0.866026 60470a.dat
