0 6-sided Bar Hub
0 Name: brickcamp-208.ldr
0 Author: Tobias Buckdahn [brick.camp]
0 !LDRAW_ORG Unofficial_Model
0 !LICENSE Licensed under CC BY 4.0 : see https://brick.camp/legal
1 70 70 -56 -70 1 0 0 0 1 0 0 0 1 87994.dat
1 70 70 -25.9321 -70 1 0 0 0 1 0 0 0 1 68888.dat
1 19 48 -25.9321 -70 1 0 0 0 1 0 0 0 1 32002.dat
1 19 92 -25.9321 -70 -1 0 0 0 1 0 0 0 -1 32002.dat
1 19 70 -25.9321 -92 0 0 -1 0 1 0 1 0 0 32002.dat
1 19 70 -25.9321 -48 0 0 1 0 1 0 -1 0 0 32002.dat
1 19 70 -47.9321 -70 0 -1 0 1 0 0 0 0 1 32002.dat
1 19 70 -3.9321 -70 0 -1 0 -1 0 0 0 0 -1 32002.dat
1 40 70 -67.9321 -70 0 -1 0 1 0 0 0 0 1 62462.dat
1 40 70 16.0679 -70 0 -1 0 1 0 0 0 0 1 62462.dat
1 40 28 -25.9321 -70 1 0 0 0 1 0 0 0 1 62462.dat
1 40 112 -25.9321 -70 1 0 0 0 1 0 0 0 1 62462.dat
1 40 70 -25.9321 -28 0 0 1 0 1 0 -1 0 0 62462.dat
1 40 70 -25.9321 -112 0 0 1 0 1 0 -1 0 0 62462.dat
