0 Panel 1 x 2 x 1 enclosed by Hinge 2 x 2 Tops
0 Name: brickcamp-172.ldr
0 Author: Tobias Buckdahn [brick.camp]
0 !LDRAW_ORG Unofficial_Model
0 !LICENSE Licensed under CC BY 4.0 : see https://brick.camp/legal
1 14 0 50 35 1 0 0 0 0 -1 0 1 0 6134.dat
1 14 0 16 65 -1 0 0 0 1 0 0 0 -1 6134.dat
1 25 0 16 65 1 0 0 0 1 0 0 0 1 3937.dat
1 25 0 40 45 1 0 0 0 1 0 0 0 1 3937.dat
1 4 0 42 47 1 0 0 0 -1 0 0 0 -1 4865a.dat
1 47 0 64 55 1 0 0 0 1 0 0 0 1 3020.dat
1 47 -30 40 55 0 0 -1 0 1 0 1 0 0 3004.dat
1 47 -30 16 55 0 0 -1 0 1 0 1 0 0 3004.dat
1 7 0 40 65 1 0 0 0 1 0 0 0 1 3004.dat
