0 Jagged 1x1 Tiles
0 Name: brickcamp-245.ldr
0 Author: Tobias Buckdahn [brick.camp]
0 !LDRAW_ORG Unofficial_Model
0 !LICENSE Licensed under CC BY 4.0 : see https://brick.camp/legal
1 71 80 -8 -80 1 0 0 0 1 0 0 0 1 41539.dat
0 STEP
1 0 10 -16 -10 0.996195 0 0.087156 0 1 0 -0.087156 0 0.996195 3070b.dat
1 0 50 -16 -10 0.996195 0 0.087156 0 1 0 -0.087156 0 0.996195 3070b.dat
1 0 90 -16 -10 0.996195 0 0.087156 0 1 0 -0.087156 0 0.996195 3070b.dat
1 0 130 -16 -9.9999 0.996195 0 0.087156 0 1 0 -0.087156 0 0.996195 3070b.dat
1 0 30 -16 -30 0.996195 0 0.087156 0 1 0 -0.087156 0 0.996195 3070b.dat
1 0 70 -16 -30 0.996195 0 0.087156 0 1 0 -0.087156 0 0.996195 3070b.dat
1 0 110 -16 -30 0.996195 0 0.087156 0 1 0 -0.087156 0 0.996195 3070b.dat
1 0 150 -16 -30 0.996195 0 0.087156 0 1 0 -0.087156 0 0.996195 3070b.dat
1 0 9.9999 -16 -50 0.996195 0 0.087156 0 1 0 -0.087156 0 0.996195 3070b.dat
1 0 50 -16 -50 0.996195 0 0.087156 0 1 0 -0.087156 0 0.996195 3070b.dat
1 0 90 -16 -50 0.996195 0 0.087156 0 1 0 -0.087156 0 0.996195 3070b.dat
1 0 130 -16 -50 0.996195 0 0.087156 0 1 0 -0.087156 0 0.996195 3070b.dat
1 0 30 -16 -70 0.996195 0 0.087156 0 1 0 -0.087156 0 0.996195 3070b.dat
1 0 70 -16 -70 0.996195 0 0.087156 0 1 0 -0.087156 0 0.996195 3070b.dat
1 0 110 -16 -70 0.996195 0 0.087156 0 1 0 -0.087156 0 0.996195 3070b.dat
1 0 150 -16 -70 0.996195 0 0.087156 0 1 0 -0.087156 0 0.996195 3070b.dat
1 0 9.9999 -16 -90 0.996195 0 0.087156 0 1 0 -0.087156 0 0.996195 3070b.dat
1 0 50 -16 -90 0.996195 0 0.087156 0 1 0 -0.087156 0 0.996195 3070b.dat
1 0 90 -16 -90 0.996195 0 0.087156 0 1 0 -0.087156 0 0.996195 3070b.dat
1 0 130 -16 -90 0.996195 0 0.087156 0 1 0 -0.087156 0 0.996195 3070b.dat
1 0 30 -16 -110 0.996195 0 0.087156 0 1 0 -0.087156 0 0.996195 3070b.dat
1 0 70 -16 -110 0.996195 0 0.087156 0 1 0 -0.087156 0 0.996195 3070b.dat
1 0 110 -16 -110 0.996195 0 0.087156 0 1 0 -0.087156 0 0.996195 3070b.dat
1 0 150 -16 -110 0.996195 0 0.087156 0 1 0 -0.087156 0 0.996195 3070b.dat
1 0 10 -16 -130 0.996195 0 0.087156 0 1 0 -0.087156 0 0.996195 3070b.dat
1 0 50 -16 -130 0.996195 0 0.087156 0 1 0 -0.087156 0 0.996195 3070b.dat
1 0 90 -16 -130 0.996195 0 0.087156 0 1 0 -0.087156 0 0.996195 3070b.dat
1 0 130 -16 -130 0.996195 0 0.087156 0 1 0 -0.087156 0 0.996195 3070b.dat
1 0 30 -16 -150 0.996195 0 0.087156 0 1 0 -0.087156 0 0.996195 3070b.dat
1 0 70 -16 -150 0.996195 0 0.087156 0 1 0 -0.087156 0 0.996195 3070b.dat
1 0 110 -16 -150 0.996195 0 0.087156 0 1 0 -0.087156 0 0.996195 3070b.dat
1 0 150 -16 -150 0.996195 0 0.087156 0 1 0 -0.087156 0 0.996195 3070b.dat
0 STEP
1 15 30 -16 -10 0.996195 0 0.087156 0 1 0 -0.087156 0 0.996195 3070b.dat
1 15 70 -16 -9.9999 0.996195 0 0.087156 0 1 0 -0.087156 0 0.996195 3070b.dat
1 15 110 -16 -9.9999 0.996195 0 0.087156 0 1 0 -0.087156 0 0.996195 3070b.dat
1 15 150 -16 -9.9999 0.996195 0 0.087156 0 1 0 -0.087156 0 0.996195 3070b.dat
1 15 10 -16 -30 0.996195 0 0.087156 0 1 0 -0.087156 0 0.996195 3070b.dat
1 15 50 -16 -30 0.996195 0 0.087156 0 1 0 -0.087156 0 0.996195 3070b.dat
1 15 90 -16 -30 0.996195 0 0.087156 0 1 0 -0.087156 0 0.996195 3070b.dat
1 15 130 -16 -29.9999 0.996195 0 0.087156 0 1 0 -0.087156 0 0.996195 3070b.dat
1 15 29.9999 -16 -50 0.996195 0 0.087156 0 1 0 -0.087156 0 0.996195 3070b.dat
1 15 70 -16 -50 0.996195 0 0.087156 0 1 0 -0.087156 0 0.996195 3070b.dat
1 15 110 -16 -50 0.996195 0 0.087156 0 1 0 -0.087156 0 0.996195 3070b.dat
1 15 150 -16 -50 0.996195 0 0.087156 0 1 0 -0.087156 0 0.996195 3070b.dat
1 15 10 -16 -70 0.996195 0 0.087156 0 1 0 -0.087156 0 0.996195 3070b.dat
1 15 50 -16 -70 0.996195 0 0.087156 0 1 0 -0.087156 0 0.996195 3070b.dat
1 15 90 -16 -70 0.996195 0 0.087156 0 1 0 -0.087156 0 0.996195 3070b.dat
1 15 130 -16 -70 0.996195 0 0.087156 0 1 0 -0.087156 0 0.996195 3070b.dat
1 15 29.9999 -16 -90 0.996195 0 0.087156 0 1 0 -0.087156 0 0.996195 3070b.dat
1 15 70 -16 -90 0.996195 0 0.087156 0 1 0 -0.087156 0 0.996195 3070b.dat
1 15 110 -16 -90 0.996195 0 0.087156 0 1 0 -0.087156 0 0.996195 3070b.dat
1 15 150 -16 -90 0.996195 0 0.087156 0 1 0 -0.087156 0 0.996195 3070b.dat
1 15 10 -16 -110 0.996195 0 0.087156 0 1 0 -0.087156 0 0.996195 3070b.dat
1 15 50 -16 -110 0.996195 0 0.087156 0 1 0 -0.087156 0 0.996195 3070b.dat
1 15 90 -16 -110 0.996195 0 0.087156 0 1 0 -0.087156 0 0.996195 3070b.dat
1 15 130 -16 -110 0.996195 0 0.087156 0 1 0 -0.087156 0 0.996195 3070b.dat
1 15 30 -16 -130 0.996195 0 0.087156 0 1 0 -0.087156 0 0.996195 3070b.dat
1 15 70 -16 -130 0.996195 0 0.087156 0 1 0 -0.087156 0 0.996195 3070b.dat
1 15 110 -16 -130 0.996195 0 0.087156 0 1 0 -0.087156 0 0.996195 3070b.dat
1 15 150 -16 -130 0.996195 0 0.087156 0 1 0 -0.087156 0 0.996195 3070b.dat
1 15 9.9999 -16 -150 0.996195 0 0.087156 0 1 0 -0.087156 0 0.996195 3070b.dat
1 15 50 -16 -150 0.996195 0 0.087156 0 1 0 -0.087156 0 0.996195 3070b.dat
1 15 90 -16 -150 0.996195 0 0.087156 0 1 0 -0.087156 0 0.996195 3070b.dat
1 15 130 -16 -150 0.996195 0 0.087156 0 1 0 -0.087156 0 0.996195 3070b.dat
