0 Turntable Tops 2 x 2 on Plate
0 Name: brickcamp-157.ldr
0 Author: Tobias Buckdahn [brick.camp]
0 !LDRAW_ORG Unofficial_Model
0 !LICENSE Licensed under CC BY 4.0 : see https://brick.camp/legal
1 0 0 0 0 -1 0 0 0 1 0 0 0 -1 3958.dat
1 7 50 -8 -50 -1 0 0 0 1 0 0 0 -1 6141.dat
1 7 50 -8 -10 -1 0 0 0 1 0 0 0 -1 6141.dat
1 7 50 -8 30 -1 0 0 0 1 0 0 0 -1 6141.dat
1 7 10 -8 -50 -1 0 0 0 1 0 0 0 -1 6141.dat
1 7 10 -8 -10 -1 0 0 0 1 0 0 0 -1 6141.dat
1 7 10 -8 30 -1 0 0 0 1 0 0 0 -1 6141.dat
1 7 -30 -8 -50 -1 0 0 0 1 0 0 0 -1 6141.dat
1 7 -30 -8 -10 -1 0 0 0 1 0 0 0 -1 6141.dat
1 7 -30 -8 30 -1 0 0 0 1 0 0 0 -1 6141.dat
1 7 30 -4 -30 -1 0 0 0 -1 0 0 0 1 3679.dat
1 7 -10 -4 -30 -1 0 0 0 -1 0 0 0 1 3679.dat
1 7 30 -4 10 -1 0 0 0 -1 0 0 0 1 3679.dat
1 7 -10 -4 10 -1 0 0 0 -1 0 0 0 1 3679.dat
1 7 -10 -4 50 -1 0 0 0 -1 0 0 0 1 3679.dat
1 7 -50 -4 50 -1 0 0 0 -1 0 0 0 1 3679.dat
1 7 -50 -4 10 -1 0 0 0 -1 0 0 0 1 3679.dat
1 7 -50 -4 -30 -1 0 0 0 -1 0 0 0 1 3679.dat
1 7 30 -4 50 -1 0 0 0 -1 0 0 0 1 3679.dat
