0 Barred Blades
0 Name: brickcamp-256.ldr
0 Author: Tobias Buckdahn [brick.camp]
0 !LDRAW_ORG Unofficial_Model
0 !LICENSE Licensed under CC BY 4.0 : see https://brick.camp/legal
1 71 0 -10 0 1 0 0 0 0 -1 0 1 0 41530.dat
1 71 0 10 0 0.707107 0.707107 0 0 0 -1 -0.707107 0.707107 0 41530.dat
1 70 20 -30 0 1 0 0 0 1 0 0 0 1 87994.dat
1 70 -20 -30 0 1 0 0 0 1 0 0 0 1 87994.dat
1 70 0 -30 20 0 0 -1 0 1 0 1 0 0 87994.dat
1 70 0 -30 -20 0 0 -1 0 1 0 1 0 0 87994.dat
1 70 14.1421 -30 14.1421 0.707107 0 -0.707107 0 1 0 0.707107 0 0.707107 87994.dat
1 70 -14.1421 -30 -14.1421 0.707107 0 -0.707107 0 1 0 0.707107 0 0.707107 87994.dat
1 70 -14.1421 -30 14.1421 -0.707107 0 -0.707107 0 1 0 0.707107 0 -0.707107 87994.dat
1 70 14.1421 -30 -14.1421 -0.707107 0 -0.707107 0 1 0 0.707107 0 -0.707107 87994.dat
1 0 0 -30 0 0 0 -1 -1 0 0 0 1 0 4519.dat
1 0 0 30 0 0 -0.707107 -0.707107 -1 0 0 0 0.707107 -0.707107 4519.dat
