0 Bracket
0 Name: brickcamp-8.ldr
0 Author: Tobias Buckdahn [brick.camp]
0 !LDRAW_ORG Unofficial_Model
0 !LICENSE Licensed under CC BY 4.0 : see https://brick.camp/legal
1 14 -20 -19.999998 -100 1 0 0 0 1 0 0 0 1 2436a.dat
1 25 40 -39.999996 -60.000008 1 0 0 0 1 0 0 0 1 44728.dat
1 4 80 -8 -20.000002 1 0 0 0 1 0 0 0 1 99780.dat
1 25 120 -8.000095 20 1 0 0 0 1 0 0 0 1 99207.dat
1 4 -79.999992 -24 -30 1 0 0 0 1 0 0 0 1 3956.dat
1 14 0 -63.999996 10 1 0 0 0 1 0 0 0 1 93274.dat
1 4 50 -48 60 1 0 0 0 1 0 0 0 1 42446.dat
