0 Headlight SNOT
0 Name: brickcamp-180.ldr
0 Author: Tobias Buckdahn [brick.camp]
0 !LDRAW_ORG Unofficial_Model
0 !LICENSE Licensed under CC BY 4.0 : see https://brick.camp/legal
1 4 0 -72 -40 1 0 0 0 1 0 0 0 1 4070.dat
1 14 0 -62 -70 1 0 0 0 0 -1 0 1 0 4070.dat
1 25 0 -48 -60 1 0 0 0 -1 0 0 0 -1 3024.dat
1 0 0 -24 0 1 0 0 0 1 0 0 0 1 4070.dat
1 15 0 -14 -30 1 0 0 0 0 -1 0 1 0 4070.dat
1 7 0 0 -20 1 0 0 0 -1 0 0 0 -1 3024.dat
1 0 0 0 -40 1 0 0 0 1 0 0 0 1 4070.dat
1 15 0 10 -70 1 0 0 0 0 -1 0 1 0 4070.dat
1 7 0 24 -60 1 0 0 0 -1 0 0 0 -1 3024.dat
1 0 0 -24 -40 1 0 0 0 1 0 0 0 1 4070.dat
1 15 0 -14 -70 1 0 0 0 0 -1 0 1 0 4070.dat
1 7 0 0 -60 1 0 0 0 -1 0 0 0 -1 3024.dat
1 0 0 -48 0 1 0 0 0 1 0 0 0 1 4070.dat
1 15 0 -38 -30 1 0 0 0 0 -1 0 1 0 4070.dat
1 7 0 -24 -20 1 0 0 0 -1 0 0 0 -1 3024.dat
1 0 0 0 0 1 0 0 0 1 0 0 0 1 4070.dat
1 15 0 10 -30 1 0 0 0 0 -1 0 1 0 4070.dat
1 7 0 24 -20 1 0 0 0 -1 0 0 0 -1 3024.dat
1 0 0 -48 -40 1 0 0 0 1 0 0 0 1 4070.dat
1 15 0 -38 -70 1 0 0 0 0 -1 0 1 0 4070.dat
1 7 0 -24 -60 1 0 0 0 -1 0 0 0 -1 3024.dat
1 0 0 -72 0 1 0 0 0 1 0 0 0 1 4070.dat
1 15 0 -62 -30 1 0 0 0 0 -1 0 1 0 4070.dat
1 7 0 -48 -20 1 0 0 0 -1 0 0 0 -1 3024.dat
