0 Jagged 1x1 Bricks
0 Name: brickcamp-246.ldr
0 Author: Tobias Buckdahn [brick.camp]
0 !LDRAW_ORG Unofficial_Model
0 !LICENSE Licensed under CC BY 4.0 : see https://brick.camp/legal
1 15 -48.3847 -10 0 0 -1 0 0 0 1 -1 0 0 3666.dat
0 STEP
1 19 -24.3847 -10 50 0 -1 0 -0.087155 0 0.996195 -0.996195 0 -0.087155 3005.dat
1 19 -24.3847 -10 30 0 -1 0 -0.087155 0 0.996195 -0.996195 0 -0.087155 3005.dat
1 19 -24.3847 -10 10 0 -1 0 -0.087155 0 0.996195 -0.996195 0 -0.087155 3005.dat
1 19 -24.3847 -10 -10 0 -1 0 -0.087155 0 0.996195 -0.996195 0 -0.087155 3005.dat
1 19 -24.3847 -10 -30.0001 0 -1 0 -0.087155 0 0.996195 -0.996195 0 -0.087155 3005.dat
1 19 -24.3847 -10 -50.0002 0 -1 0 -0.087155 0 0.996195 -0.996195 0 -0.087155 3005.dat
0 STEP
1 19 -0.3847 -10 50.0001 0 -1 0 -0.087155 0 0.996195 -0.996195 0 -0.087155 3005.dat
1 19 -0.3847 -10 30.0001 0 -1 0 -0.087155 0 0.996195 -0.996195 0 -0.087155 3005.dat
1 19 -0.3846 -10 10 0 -1 0 -0.087155 0 0.996195 -0.996195 0 -0.087155 3005.dat
1 19 -0.3846 -10 -10 0 -1 0 -0.087155 0 0.996195 -0.996195 0 -0.087155 3005.dat
1 19 -0.3846 -10 -30.0001 0 -1 0 -0.087155 0 0.996195 -0.996195 0 -0.087155 3005.dat
1 19 -0.3846 -10 -50.0001 0 -1 0 -0.087155 0 0.996195 -0.996195 0 -0.087155 3005.dat
0 STEP
1 19 23.6154 -10 50 0 -1 0 -0.087155 0 0.996195 -0.996195 0 -0.087155 3005.dat
1 19 23.6154 -10 30.0001 0 -1 0 -0.087155 0 0.996195 -0.996195 0 -0.087155 3005.dat
1 19 23.6154 -10 10 0 -1 0 -0.087155 0 0.996195 -0.996195 0 -0.087155 3005.dat
1 19 23.6154 -10 -10 0 -1 0 -0.087155 0 0.996195 -0.996195 0 -0.087155 3005.dat
1 19 23.6154 -10 -30.0001 0 -1 0 -0.087155 0 0.996195 -0.996195 0 -0.087155 3005.dat
1 19 23.6154 -10 -50.0001 0 -1 0 -0.087155 0 0.996195 -0.996195 0 -0.087155 3005.dat
0 STEP
1 19 47.6155 -10 50.0001 0 -1 0 -0.087155 0 0.996195 -0.996195 0 -0.087155 3005.dat
1 19 47.6155 -10 30.0001 0 -1 0 -0.087155 0 0.996195 -0.996195 0 -0.087155 3005.dat
1 19 47.6155 -10 10 0 -1 0 -0.087155 0 0.996195 -0.996195 0 -0.087155 3005.dat
1 19 47.6155 -10 -10 0 -1 0 -0.087155 0 0.996195 -0.996195 0 -0.087155 3005.dat
1 19 47.6155 -10 -30.0001 0 -1 0 -0.087155 0 0.996195 -0.996195 0 -0.087155 3005.dat
1 19 47.6155 -10 -50.0001 0 -1 0 -0.087155 0 0.996195 -0.996195 0 -0.087155 3005.dat
0 STEP
1 15 55.6155 -10 0 0 -1 0 0 0 1 -1 0 0 6636.dat
