0 Palm Top in Bracket Square
0 Name: brickcamp-97.ldr
0 Author: Tobias Buckdahn [brick.camp]
0 !LDRAW_ORG Unofficial_Model
0 !LICENSE Licensed under CC BY 4.0 : see https://brick.camp/legal
1 25 0 28.648808 7.520258 0 -1 0 -1 0 -0 0 0 -1 44728.dat
1 70 -26 7.648808 3.520258 1 0 0 0 -1 -0 0 0 -1 2566.dat
1 14 -30 28.648808 29.520245 0 0 1 -1 -0 0 0 -1 0 44728.dat
1 25 -52.436111 28.648808 -0.327072 0 1 -0 -1 0 0 0 0 0.999999 44728.dat
1 14 -22.436117 28.6488 -22.327057 0 -0 -1 -1 0 -0 0 0.999999 -0 44728.dat
