0 Pentagonal Tile Column
0 Name: brickcamp-253.ldr
0 Author: Tobias Buckdahn [brick.camp]
0 !LDRAW_ORG Unofficial_Model
0 !LICENSE Licensed under CC BY 4.0 : see https://brick.camp/legal
1 19 10 -42 -10 1 0 0 0 1 0 0 0 1 26604.dat
1 19 10 -42 10 0 0 -1 0 1 0 1 0 0 26604.dat
1 19 -10 -42 10 -1 0 0 0 1 0 0 0 -1 26604.dat
1 19 -10 -42 -10 0 0 1 0 1 0 -1 0 0 26604.dat
1 8 0 -50 0 -1 0 0 0 1 0 0 0 -1 15535.dat
1 71 28 -32 0 0 -1 0 0 0 1 -1 0 0 22385.dat
1 71 -28 -32 0 0 1 0 0 0 1 1 0 0 22385.dat
1 0 10 -60 0 0 -1 0 -1 0 0 0 0 -1 4733.dat
1 19 -0.0001 -100.6 -14.1421 0.707107 0 0.707107 0 1 0 -0.707107 0 0.707107 26604.dat
1 19 14.1421 -100.6 0 0.707107 0 -0.707107 0 1 0 0.707107 0 0.707107 26604.dat
1 19 0 -100.6 14.1421 -0.707107 0 -0.707107 0 1 0 0.707107 0 -0.707107 26604.dat
1 19 -14.1422 -100.6 0 -0.707107 0 0.707107 0 1 0 -0.707107 0 -0.707107 26604.dat
1 14 0 -76.6 0 -0.707107 0 -0.707107 0 1 0 0.707107 0 -0.707107 4032a.dat
1 71 -19.799 -70.6 -19.799 0.707107 0.707107 0 0 0 -1 -0.707107 0.707107 0 22385.dat
1 71 -19.799 -70.6 19.799 -0.707107 0.707107 0 0 0 -1 -0.707107 -0.707107 0 22385.dat
1 71 19.799 -70.6 -19.799 0.707107 -0.707107 0 0 0 -1 0.707107 0.707107 0 22385.dat
1 14 0 -17.6 0 0 0 -1 0 1 0 1 0 0 4032a.dat
1 14 0 -9.6 0 0 0 -1 0 1 0 1 0 0 4032a.dat
1 71 19.799 -70.6 19.799 -0.707107 -0.707107 0 0 0 -1 0.707107 -0.707107 0 22385.dat
1 71 0 -32 -28 -1 0 0 0 0 1 0 1 0 22385.dat
1 71 0 -32 28 1 0 0 0 0 1 0 -1 0 22385.dat
1 19 50.5556 -26 54.616 0 0 1 0 1 0 -1 0 0 26604.dat
1 19 70.5555 -26 54.616 1 0 0 0 1 0 0 0 1 26604.dat
1 19 70.5556 -26 74.616 0 0 -1 0 1 0 1 0 0 26604.dat
1 19 50.5556 -26 74.616 -1 0 0 0 1 0 0 0 -1 26604.dat
1 8 60.5556 -42 64.616 0 0 -1 0 1 0 1 0 0 15535.dat
1 71 60.5556 -16 92.616 1 0 0 0 0 1 0 -1 0 22385.dat
1 0 60.5556 -60 54.616 0 0 -1 -1 0 0 0 1 0 4733.dat
1 19 46.4135 -116.6 64.6161 -0.707107 0 0.707107 0 1 0 -0.707107 0 -0.707107 26604.dat
1 19 60.5556 -116.6 50.4739 0.707107 0 0.707107 0 1 0 -0.707107 0 0.707107 26604.dat
1 19 74.6977 -116.6 64.616 0.707107 0 -0.707107 0 1 0 0.707107 0 0.707107 26604.dat
1 19 60.5556 -116.6 78.7582 -0.707107 0 -0.707107 0 1 0 0.707107 0 -0.707107 26604.dat
1 14 60.5556 -84.6 64.616 0.707107 0 -0.707107 0 1 0 0.707107 0 0.707107 4032a.dat
1 71 35.0996 -86.6 90.0719 -0.707107 0.707107 0 0 0 -1 -0.707107 -0.707107 0 22385.dat
1 71 86.0114 -86.6 90.0718 -0.707107 -0.707107 0 0 0 -1 0.707107 -0.707107 0 22385.dat
1 71 35.0996 -86.6 39.1601 0.707107 0.707107 0 0 0 -1 -0.707107 0.707107 0 22385.dat
1 14 60.5556 6.4 64.616 1 0 0 0 1 0 0 0 1 4032a.dat
1 14 60.5556 22.4 64.616 1 0 0 0 1 0 0 0 1 4032a.dat
1 71 32.5556 -16 64.616 0 1 0 0 0 1 1 0 0 22385.dat
