0 Sliding Puzzle
0 Name: brickcamp-249.ldr
0 Author: Tobias Buckdahn [brick.camp]
0 !LDRAW_ORG Unofficial_Model
0 !LICENSE Licensed under CC BY 4.0 : see https://brick.camp/legal
1 0 0 -8 40 1 0 0 0 1 0 0 0 1 3033.dat
1 0 60 -8 -60 1 0 0 0 1 0 0 0 1 3031.dat
1 0 -40 -8 -60 1 0 0 0 1 0 0 0 1 3032.dat
0 STEP
1 15 40 -16 -40 1 0 0 0 1 0 0 0 1 3068b.dat
1 15 40 -16 0 1 0 0 0 1 0 0 0 1 3068b.dat
1 15 40 -16 40 1 0 0 0 1 0 0 0 1 3068b.dat
1 15 0 -16 -40 1 0 0 0 1 0 0 0 1 3068b.dat
1 15 0 -16 0 1 0 0 0 1 0 0 0 1 3068b.dat
1 15 0 -16 40 1 0 0 0 1 0 0 0 1 3068b.dat
1 15 -40 -16 -40 1 0 0 0 1 0 0 0 1 3068b.dat
1 15 -40 -16 0 1 0 0 0 1 0 0 0 1 3068b.dat
1 15 -40 -16 40 1 0 0 0 1 0 0 0 1 3068b.dat
1 15 0 -16 70 1 0 0 0 1 0 0 0 1 6636.dat
1 15 0 -16 -70 1 0 0 0 1 0 0 0 1 6636.dat
1 15 70 -16 0 0 0 1 0 1 0 -1 0 0 4162.dat
1 15 -70 -16 0 0 0 1 0 1 0 -1 0 0 4162.dat
0 STEP
1 0 90 -16 0 0 0 1 0 1 0 -1 0 0 4477.dat
1 0 -90 -16 0 0 0 1 0 1 0 -1 0 0 4477.dat
1 0 0 -16 90 1 0 0 0 1 0 0 0 1 3460.dat
1 0 0 -16 -90 1 0 0 0 1 0 0 0 1 3460.dat
0 STEP
1 0 -40 -40 90 1 0 0 0 1 0 0 0 1 2653.dat
1 0 40 -40 90 1 0 0 0 1 0 0 0 1 2653.dat
1 0 -90 -40 40 0 0 -1 0 1 0 1 0 0 2653.dat
1 0 -90 -40 -40 0 0 -1 0 1 0 1 0 0 2653.dat
1 0 -90 -40 90 1 0 0 0 1 0 0 0 1 6231.dat
0 STEP
1 71 -60 -24 60 1 0 0 0 1 0 0 0 1 87580.dat
1 71 -20 -24 60 1 0 0 0 1 0 0 0 1 87580.dat
1 71 20 -24 60 1 0 0 0 1 0 0 0 1 87580.dat
1 71 60 -24 60 1 0 0 0 1 0 0 0 1 87580.dat
1 71 -60 -24 20 1 0 0 0 1 0 0 0 1 87580.dat
1 71 -20 -24 20 1 0 0 0 1 0 0 0 1 87580.dat
1 71 20 -24 20 1 0 0 0 1 0 0 0 1 87580.dat
1 71 60 -24 20 1 0 0 0 1 0 0 0 1 87580.dat
1 71 -60 -24 -20 1 0 0 0 1 0 0 0 1 87580.dat
1 71 -20 -24 -20 1 0 0 0 1 0 0 0 1 87580.dat
1 71 20 -24 -20 1 0 0 0 1 0 0 0 1 87580.dat
1 71 60 -24 -20 1 0 0 0 1 0 0 0 1 87580.dat
1 71 -60 -24 -60 1 0 0 0 1 0 0 0 1 87580.dat
1 71 -20 -24 -60 1 0 0 0 1 0 0 0 1 87580.dat
1 71 20 -24 -60 1 0 0 0 1 0 0 0 1 87580.dat
1 71 -70 -32 70 1 0 0 0 1 0 0 0 1 87580.dat
1 71 -30 -32 70 1 0 0 0 1 0 0 0 1 87580.dat
1 71 10 -32 70 1 0 0 0 1 0 0 0 1 87580.dat
1 71 50 -32 70 1 0 0 0 1 0 0 0 1 87580.dat
1 71 -70 -32 30 1 0 0 0 1 0 0 0 1 87580.dat
1 71 -30 -32 30 1 0 0 0 1 0 0 0 1 87580.dat
1 71 10 -32 30 1 0 0 0 1 0 0 0 1 87580.dat
1 71 50 -32 30 1 0 0 0 1 0 0 0 1 87580.dat
1 71 -70 -32 -10 1 0 0 0 1 0 0 0 1 87580.dat
1 71 -30 -32 -10 1 0 0 0 1 0 0 0 1 87580.dat
1 71 10 -32 -10 1 0 0 0 1 0 0 0 1 87580.dat
1 71 50 -32 -10 1 0 0 0 1 0 0 0 1 87580.dat
1 71 -70 -32 -50 1 0 0 0 1 0 0 0 1 87580.dat
1 71 -30 -32 -50 1 0 0 0 1 0 0 0 1 87580.dat
1 71 10 -32 -50 1 0 0 0 1 0 0 0 1 87580.dat
0 STEP
1 0 90 -40 80 0 0 1 0 1 0 -1 0 0 3004.dat
1 0 -80 -40 -90 -1 0 0 0 1 0 0 0 -1 3004.dat
1 0 0 -24 -90 1 0 0 0 1 0 0 0 1 3666.dat
1 0 90 -24 0 0 0 1 0 1 0 -1 0 0 3666.dat
0 STEP
1 0 90 -32 40 0 0 1 0 1 0 -1 0 0 32028.dat
1 0 90 -32 0 0 0 1 0 1 0 -1 0 0 32028.dat
1 0 90 -32 -40 0 0 1 0 1 0 -1 0 0 32028.dat
1 0 40 -32 -90 -1 0 0 0 1 0 0 0 -1 32028.dat
1 0 0 -32 -90 -1 0 0 0 1 0 0 0 -1 32028.dat
1 0 -40 -32 -90 -1 0 0 0 1 0 0 0 -1 32028.dat
0 STEP
1 0 90 -40 -90 0 0 -1 0 1 0 1 0 0 2357.dat
1 0 0 -40 -90 1 0 0 0 1 0 0 0 1 3666.dat
1 0 90 -40 0 0 0 1 0 1 0 -1 0 0 3666.dat
0 STEP
0 STEP
1 19 0 -48 -90 1 0 0 0 1 0 0 0 1 4162.dat
1 19 0 -48 90 1 0 0 0 1 0 0 0 1 4162.dat
1 19 90 -48 40 0 0 1 0 1 0 -1 0 0 6636.dat
1 19 -90 -48 -40 0 0 1 0 1 0 -1 0 0 6636.dat
1 19 -90 -48 60 0 0 -1 0 1 0 1 0 0 2431.dat
1 19 90 -48 -60 0 0 -1 0 1 0 1 0 0 2431.dat
0 STEP
1 15 -60 -40 60 0 0 1 0 1 0 -1 0 0 3068bp97.dat
1 15 -60 -40 -60 1 0 0 0 1 0 0 0 1 3068bp97.dat
1 15 60 -40 60 -1 0 0 0 1 0 0 0 -1 3068bp97.dat
1 15 -20 -40 -20 -1 0 0 0 1 0 0 0 -1 3068bp99.dat
1 15 20 -40 -20 0 0 1 0 1 0 -1 0 0 3068bp99.dat
1 15 20 -40 20 1 0 0 0 1 0 0 0 1 3068bp99.dat
1 15 -20 -40 20 0 0 -1 0 1 0 1 0 0 3068bp99.dat
1 15 -20 -40 60 1 0 0 0 1 0 0 0 1 3068bpf5.dat
1 15 20 -40 60 1 0 0 0 1 0 0 0 1 3068bpf6.dat
1 15 60 -40 20 0 0 1 0 1 0 -1 0 0 3068bpf7.dat
1 15 60 -40 -20 0 0 1 0 1 0 -1 0 0 3068bpf8.dat
1 15 20 -40 -60 -1 0 0 0 1 0 0 0 -1 3068bpf9.dat
1 15 -20 -40 -60 -1 0 0 0 1 0 0 0 -1 3068bpfq.dat
1 15 -60 -40 -20 0 0 -1 0 1 0 1 0 0 3068bp87.dat
1 15 -60 -40 20 0 0 -1 0 1 0 1 0 0 3068bpfo.dat
