0 Minifig Goblet Offset
0 Name: brickcamp-165.ldr
0 Author: Tobias Buckdahn [brick.camp]
0 !LDRAW_ORG Unofficial_Model
0 !LICENSE Licensed under CC BY 4.0 : see https://brick.camp/legal
1 14 9 23 10 1 0 0 0 1 0 0 0 1 2343.dat
1 15 32 55 20 1 0 0 0 1 0 0 0 1 3024.dat
1 7 32 47 20 1 0 0 0 1 0 0 0 1 3024.dat
1 15 32 39 20 1 0 0 0 1 0 0 0 1 3024.dat
1 7 32 31 20 1 0 0 0 1 0 0 0 1 3024.dat
1 15 32 23 20 1 0 0 0 1 0 0 0 1 3024.dat
1 8 32 15 10 0 0 1 0 1 0 -1 0 0 3023.dat
1 15 32 55 0 1 0 0 0 1 0 0 0 1 3024.dat
1 7 32 47 0 1 0 0 0 1 0 0 0 1 3024.dat
1 15 32 39 0 1 0 0 0 1 0 0 0 1 3024.dat
1 7 32 31 0 1 0 0 0 1 0 0 0 1 3024.dat
1 15 32 23 0 1 0 0 0 1 0 0 0 1 3024.dat
1 25 9 20 10 1 0 0 0 1 0 0 0 1 6141.dat
